<?xml version="1.0" encoding="utf-8"?>
<!-- Generator: Adobe Illustrator 27.2.0, SVG Export Plug-In . SVG Version: 6.00 Build 0)  -->
<svg version="1.1" xmlns="http://www.w3.org/2000/svg" xmlns:xlink="http://www.w3.org/1999/xlink" x="0px" y="0px"
	 viewBox="0 0 300 300" style="enable-background:new 0 0 300 300;" xml:space="preserve">
<style type="text/css">
	.st0{fill:#FFFFFF;}
	.st1{fill:#D8C6E0;}
	.st2{fill:#5377BD;}
	.st3{fill:#2D336C;}
	.st4{fill:#F4A4A4;}
	.st5{fill:#E17F8E;}
	.st6{fill:#F6B9B6;}
	.st7{fill:#4D1F5A;}
	.st8{fill:#D88787;}
	.st9{fill:#3D1749;}
	.st10{fill:#BD0025;}
	.st11{fill:#F9D615;}
	.st12{fill:#D8B316;}
	.st13{fill:#E0E0D5;}
	.st14{fill:#261F1D;}
	.st15{fill:#61200D;}
	.st16{fill:#FEFEF1;}
	.st17{opacity:0.5;fill:#4D1F5A;}
	.st18{fill:#C5E4F7;}
	.st19{fill:#A42B66;}
	.st20{fill:#3C1644;}
	.st21{fill:#4E1F56;}
	.st22{fill:#BE3F82;}
	.st23{fill:#91205C;}
	.st24{fill:#722814;}
	.st25{fill:#5E210F;}
	.st26{fill:#9B3429;}
	.st27{fill:#721D17;}
	.st28{fill:#FCFFFC;}
	.st29{fill:#2C4080;}
	.st30{fill:#441308;}
	.st31{fill:#90AED6;}
	.st32{fill:#FBD3CC;}
	.st33{fill:#C95427;}
	.st34{fill:#6B2413;}
	.st35{fill:#EF7543;}
</style>
<g id="BACKGROUND">
	<g>
		<g>
			<g>
				<rect x="-62" y="305.5" class="st0" width="750" height="500"/>
			</g>
		</g>
	</g>
</g>
<g id="OBJECTS">
	<g>
		<g>
			<g>
				<path class="st1" d="M658.6,436.7c0,25-8.2,48.1-22.1,66.7c-1.3,1.7-2.6,3.3-3.9,4.9c-0.8,0.9-1.5,1.8-2.3,2.7
					c-0.7,0.8-1.4,1.6-2.1,2.3c-20.3,21.4-49,34.8-80.9,34.8c-31.8,0-60.6-13.4-80.9-34.8c0,0,0,0,0,0c0,0,0,0-0.1-0.1
					c-1.5-1.6-3-3.3-4.4-5c-1.3-1.6-2.6-3.2-3.9-4.9c-13.9-18.6-22.1-41.6-22.1-66.7c0-61.5,49.9-111.4,111.4-111.4
					C608.7,325.4,658.6,375.2,658.6,436.7z"/>
			</g>
		</g>
		<g>
			<path class="st2" d="M628.1,513.3C628.1,513.3,628.1,513.3,628.1,513.3C628.1,513.3,628.1,513.3,628.1,513.3L628.1,513.3
				c-0.2,0.3-0.5,0.5-0.7,0.7c-0.4,0.4-0.8,0.8-1.2,1.2c-0.3,0.3-0.5,0.5-0.8,0.8c-0.4,0.4-0.8,0.8-1.2,1.2
				c-0.3,0.3-0.6,0.5-0.8,0.8c-0.4,0.4-0.8,0.8-1.2,1.1c-6.5,6-13.8,11.2-21.6,15.4c-15.8,8.7-34,13.6-53.3,13.6
				c-15.5,0-30.3-3.2-43.8-8.9c-11.5-4.9-22.1-11.8-31.2-20.1c-0.4-0.4-0.8-0.7-1.2-1.1c-0.3-0.3-0.6-0.5-0.8-0.8
				c-0.4-0.4-0.8-0.8-1.2-1.2c-0.3-0.3-0.5-0.5-0.8-0.8c-0.4-0.4-0.8-0.8-1.2-1.2c-0.2-0.2-0.4-0.4-0.6-0.6c0,0,0,0,0,0
				c0,0,0-0.1,0-0.1l11.2-15.9c2.8-3.9,6.8-6.8,11.4-8.2c0,0,0.1,0,0.1,0c5.8-1.7,14.7-4.2,24.2-6.4c11.4-2.6,24-4.8,33.9-4.8h0.1
				c9.9,0,22.5,2.2,33.9,4.8c9.6,2.2,18.4,4.7,24.2,6.4c0,0,0.1,0,0.1,0c2.6,0.8,5,2.1,7.1,3.7c0.5,0.4,0.9,0.7,1.3,1.1
				c1.1,1,2.1,2.2,3,3.4L628.1,513.3z"/>
			<polygon class="st3" points="547.2,540.5 533.6,515.8 560.9,515.8 			"/>
		</g>
		<g>
			<path class="st3" d="M583.6,483.6c0,20-16.3,36.3-36.3,36.3c-20,0-36.3-16.3-36.3-36.3c0,0,0,0,0,0c0-1.9,1.4-3.6,3.3-4
				c11.3-2.5,23.3-4.4,33-4.4h0.1c9.7,0,21.7,2,33,4.4C582.1,479.9,583.5,481.6,583.6,483.6C583.6,483.5,583.6,483.5,583.6,483.6z"
				/>
			<path class="st4" d="M574.3,485.7v-36.3h-54.1v36.3c0,0,0,0,0,0.1c0,14.9,12.1,27,27,27C562.2,512.9,574.3,500.7,574.3,485.7
				C574.3,485.8,574.3,485.8,574.3,485.7z"/>
			<path class="st5" d="M570.3,449.4h-50.1v9.8c6.2,11,14.6,15.9,24.4,17.5c4.1,0.7,9.6,1,14.8,1.1c6.1,0.1,10.9,5.1,10.9,11.2l0,0
				c0,7.7-3.2,14.6-8.3,19.5c7.4-4.8,12.3-13.2,12.3-22.7v-8.1v-28.3H570.3z"/>
		</g>
		<g>
			<g>
				<g>
					<ellipse class="st4" cx="505.8" cy="429.1" rx="15.4" ry="16.4"/>
					<path class="st5" d="M505.8,440.5c-5.7,0-10.4-5.1-10.4-11.4c0-6.3,4.7-11.4,10.4-11.4s10.4,5.1,10.4,11.4
						C516.2,435.4,511.5,440.5,505.8,440.5z"/>
				</g>
				<g>
					<ellipse class="st4" cx="588.6" cy="429.1" rx="15.4" ry="16.4"/>
					<path class="st5" d="M588.6,440.5c-5.7,0-10.4-5.1-10.4-11.4c0-6.3,4.7-11.4,10.4-11.4c5.7,0,10.4,5.1,10.4,11.4
						C599,435.4,594.3,440.5,588.6,440.5z"/>
				</g>
			</g>
			<path class="st6" d="M564.4,363.9c13.4,0,24.3,10.9,24.3,24.3V424h-0.1c-0.5,20.3-7.1,28.9-17.1,37.8
				c-6.8,6.1-15.2,10.8-24.3,10.8c-9.1,0-17.6-4.7-24.4-10.9c-9.9-8.9-16.5-17.5-17-37.7c0-0.8,0-1.6,0-2.5v-33.2
				c0-13.4,10.9-24.3,24.3-24.3H564.4z"/>
			<g>
				<g>
					<path class="st5" d="M563.2,431.5c0,0,0-0.1,0.1-0.2c0.1-0.1,0.1-0.3,0.3-0.5c0.3-0.4,0.7-1.1,1.4-1.7c0.6-0.7,1.5-1.3,2.6-1.8
						c1-0.5,2.3-0.8,3.5-0.9c0.3,0,0.6,0,0.9,0c0.3,0,0.6,0,0.9,0.1c0.6,0.1,1.2,0.2,1.8,0.4c1.1,0.4,2.1,0.9,2.8,1.4
						c0.7,0.5,1.2,1.1,1.6,1.5c0.2,0.2,0.3,0.4,0.4,0.5c0.1,0.1,0.1,0.2,0.1,0.2s-0.2-0.2-0.6-0.5c-0.4-0.3-1-0.8-1.8-1.2
						c-0.8-0.4-1.7-0.8-2.7-1.1c-0.5-0.1-1.1-0.2-1.6-0.3c-0.3,0-0.5,0-0.8,0c-0.3,0-0.6,0-0.8,0c-0.6,0-1.1,0.1-1.7,0.2
						c-0.5,0.1-1.1,0.3-1.6,0.5c-1,0.4-1.9,0.9-2.5,1.4c-0.7,0.5-1.2,1-1.6,1.4C563.4,431.3,563.2,431.5,563.2,431.5z"/>
				</g>
				<g>
					<path class="st5" d="M531.4,431.5c0,0-0.2-0.2-0.6-0.6c-0.3-0.4-0.9-0.9-1.6-1.4c-0.7-0.5-1.6-1-2.5-1.4
						c-0.5-0.2-1-0.4-1.6-0.5c-0.5-0.1-1.1-0.2-1.7-0.2c-0.3,0-0.6,0-0.8,0c-0.3,0-0.6,0-0.8,0c-0.5,0.1-1.1,0.1-1.6,0.3
						c-1,0.3-2,0.7-2.7,1.1c-0.8,0.4-1.4,0.8-1.8,1.2c-0.4,0.3-0.6,0.5-0.6,0.5s0-0.1,0.1-0.2c0.1-0.1,0.2-0.3,0.4-0.5
						c0.3-0.4,0.8-1,1.6-1.5c0.7-0.6,1.7-1.1,2.8-1.4c0.6-0.2,1.1-0.3,1.8-0.4c0.3,0,0.6-0.1,0.9-0.1c0.3,0,0.6,0,0.9,0
						c1.2,0.1,2.5,0.4,3.5,0.9c1.1,0.5,1.9,1.2,2.6,1.8c0.7,0.6,1.1,1.3,1.4,1.7c0.2,0.2,0.2,0.4,0.3,0.5
						C531.4,431.4,531.4,431.5,531.4,431.5z"/>
				</g>
			</g>
		</g>
		<g>
			<g>
				<path class="st7" d="M593.6,413.7c0.1-2.8-0.2-5.7,0.1-8.5c0.3-3.1,1.2-6.2,2.5-9.1c2.7-6.1,1.2-14.4-1.1-20.5
					c-2.4-6.3-6.4-11.9-11.6-16c-1.8-1.4-3.8-2.6-6-3.2c-1.1-0.3-4.1-1.2-5.2-0.6c2.5-1.5,4.2-4.2,4.5-7.1c-0.1,1-8.2-0.3-9-0.5
					c-3-0.7-5.9-1.7-8.9-2.7c-4-1.2-7.7-2.9-11.8-3.4c-8-1-16.4,1.3-23.1,5.8c-2.9,2-5.5,4.6-7.2,7.6c-0.9,1.5-1.8,3.2-1.9,4.9
					c0,0.5-0.3,3.9,0.5,3.9c-4.3,0.1-8.2,1.1-11.6,3.9c-3.2,2.7-5.4,6.7-5.9,10.9c-0.7,5.4,1.2,10.6,2.3,15.8
					c1.1,4.8,0.9,9.8,0.8,14.7c0,0.4,4.7-0.8,5-0.8v-9.7c0-15.4,12.3-27.9,27.5-27.9c0,0,27.3,0,27.3,0c8.4,0,16.4,4,21.6,10.6
					c3.4,4.4,5.2,9.7,5.8,15.1c0.3,2.5,0.1,5,0,7.4c-0.1,1.1-0.2,2.2-0.3,3.4c-0.1,1,0.4,2.2,0.5,3.2c0.2,1.8,0.3,3.7,0.4,5.5
					c0.1,1.5,1.3,2,2.3,2.9c0.4,0.3,2.3,1.4,2.2,2C593.4,418.9,593.5,416.3,593.6,413.7z"/>
			</g>
			<g>
				<g>
					<path class="st7" d="M502.9,429.1h3.1v-22h-5v20.1C501.1,428.3,501.9,429.1,502.9,429.1z"/>
				</g>
				<g>
					<path class="st7" d="M591.5,429.1h-3.1v-22h5v20.1C593.4,428.3,592.6,429.1,591.5,429.1z"/>
				</g>
			</g>
			<g>
				<path class="st7" d="M505.2,417.9c0.3,0.5,0.6,1.1,0.8,1.5c-0.2-0.4,0.6-2.4,0.7-2.9c0.3-0.9,0.6-1.9,0.8-2.8
					c0.6-2.4,1.5-5.3,3.6-6.9c1.6-1.2,3.1-2.3,4.7-3.5c1.4-1.1,2.9-2.2,3.6-3.9c0.8-1.9,0.9-4.1,1.3-6.2c0,0.3,2.4,1.9,2.8,2.2
					c1,0.8,2.1,1.6,3.2,2.2c2.2,1.3,4.5,2.4,6.9,3.3c5.3,1.9,11.5,3,17.1,1.9c3.2-0.6,6.2-2,9-3.6c3.9-2.2,7-4.9,11.6-5.2
					c3.8-0.3,9.9,0.8,11.1,5.1c1.2,4-0.6,8.8,1.9,12.4c0.5,0.7,1.2,1.3,1.8,2c2,2.3,2.7,5.4,2.9,8.4c-0.1-1.4,1.6-3.4,2-4.7
					c0.7-2,1-4.3,1.3-6.4c0.7-4.6,0.9-9.3,0.6-14c-0.2-2.6-0.8-4.6-1.6-6.9c-0.7-2-0.6-4.3-1.3-6.4c-1.3-3.9-3.6-7.3-6.7-10
					c-9.2-8.2-23-9.7-34.7-9.7c-45.7,0-46.1,29.8-46.1,29.8c0.5,3.5,1,6.9,1.6,10.4c0,1.4,0.5,2.8,0.7,4.2c0.2,1.5,0.2,2.9,0,4.4
					c-0.1,1-0.4,2-0.2,3C504.5,416.3,504.8,417.1,505.2,417.9z"/>
			</g>
		</g>
		<g>
			<path class="st8" d="M552.1,437.4l-1.7,2.1c-1.7,2.1-4.6,2.1-6.3,0l-1.7-2.1c-0.5-0.6-0.1-1.6,0.5-1.6h8.6
				C552.2,435.8,552.5,436.8,552.1,437.4z"/>
		</g>
		<g>
			<path class="st7" d="M569,421.9c0,3.6-2.1,6.6-4.6,6.6c-2.5,0-4.6-2.9-4.6-6.6s2.1-6.6,4.6-6.6C567,415.4,569,418.3,569,421.9z"
				/>
			<path class="st9" d="M564.4,426.5c-1.2,0-2.6-2-2.6-4.6c0-2.6,1.4-4.6,2.6-4.6s2.6,2,2.6,4.6C567,424.6,565.7,426.5,564.4,426.5z
				"/>
		</g>
		<g>
			<path class="st7" d="M525.4,421.9c0,3.6,2.1,6.6,4.6,6.6c2.5,0,4.6-2.9,4.6-6.6s-2.1-6.6-4.6-6.6
				C527.5,415.4,525.4,418.3,525.4,421.9z"/>
			<path class="st9" d="M530,426.5c-1.2,0-2.6-2-2.6-4.6c0-2.6,1.4-4.6,2.6-4.6c1.2,0,2.6,2,2.6,4.6
				C532.6,424.6,531.2,426.5,530,426.5z"/>
		</g>
		<g>
			<path class="st7" d="M533.6,407.2c-2.8-0.3-5.6-0.1-8.2,0.6c-1.3,0.4-2.6,0.9-3.9,1.4c-1.1,0.5-3.5,1.8-3.5,3.4
				c0,0.8,2-0.6,2.5-0.8c2.1-0.9,4.4-1.6,6.7-1.8c2.4-0.2,4.6,0.2,6.9,1c1.3,0.5,2.5,1.4,3.9,1.7c0.8,0.2,1.8,0,2.3-0.6
				c0.4-0.4,0.4-0.9,0.3-1.4c-0.1-0.7-0.4-1.3-0.8-1.8c-0.2-0.2-0.3-0.4-0.5-0.6c0,0.2,0,0.5,0,0.7c0-0.2-0.5-0.3-0.7-0.4
				C537.1,407.8,535.4,407.4,533.6,407.2z"/>
		</g>
		<g>
			<path class="st7" d="M560.2,407.2c2.8-0.3,5.6-0.1,8.2,0.6c1.3,0.4,2.6,0.9,3.9,1.4c1.1,0.5,3.5,1.8,3.5,3.4c0,0.8-2-0.6-2.5-0.8
				c-2.1-0.9-4.4-1.6-6.7-1.8c-2.4-0.2-4.6,0.2-6.9,1c-1.3,0.5-2.5,1.4-3.9,1.7c-0.8,0.2-1.8,0-2.3-0.6c-0.4-0.4-0.4-0.9-0.3-1.4
				c0.1-0.7,0.4-1.3,0.8-1.8c0.2-0.2,0.3-0.4,0.5-0.6c0,0.2,0,0.5,0,0.7c0-0.2,0.5-0.3,0.7-0.4C556.6,407.8,558.4,407.4,560.2,407.2
				z"/>
		</g>
		<g>
			<g>
				<path class="st5" d="M546.2,453.3c-8,0-13.4-3.7-13.5-3.7c-0.5-0.3-0.6-0.9-0.2-1.4c0.3-0.5,0.9-0.6,1.4-0.3
					c0.5,0.3,12.1,8.2,26.7-1.1c0.5-0.3,1.1-0.2,1.4,0.3c0.3,0.5,0.2,1.1-0.3,1.4C556,452.1,550.7,453.3,546.2,453.3z"/>
			</g>
		</g>
		<g>
			<g>
				<path class="st3" d="M628.1,513.3C628.1,513.3,628.1,513.3,628.1,513.3C628.1,513.3,628.1,513.3,628.1,513.3L628.1,513.3
					c-0.2,0.3-0.5,0.5-0.7,0.7c-0.4,0.4-0.8,0.8-1.2,1.2c-0.3,0.3-0.5,0.5-0.8,0.8c-0.4,0.4-0.8,0.8-1.2,1.2
					c-0.3,0.3-0.6,0.5-0.8,0.8c-0.4,0.4-0.8,0.8-1.2,1.1c-6.5,6-13.8,11.2-21.6,15.4c0.6-24.3,2.2-41.9,4.9-45.4
					c2.6,0.8,5,2.1,7.1,3.7c0.5,0.4,0.9,0.7,1.3,1.1c1.1,1,2.1,2.2,3,3.4L628.1,513.3z"/>
			</g>
		</g>
		<g>
			<g>
				<path class="st3" d="M466.3,513.3C466.3,513.3,466.3,513.3,466.3,513.3C466.4,513.3,466.4,513.3,466.3,513.3L466.3,513.3
					c0.2,0.3,0.5,0.5,0.7,0.7c0.4,0.4,0.8,0.8,1.2,1.2c0.3,0.3,0.5,0.5,0.8,0.8c0.4,0.4,0.8,0.8,1.2,1.2c0.3,0.3,0.6,0.5,0.8,0.8
					c0.4,0.4,0.8,0.8,1.2,1.1c6.5,6,13.8,11.2,21.6,15.4c-0.6-24.3-2.2-41.9-4.9-45.4c-2.6,0.8-5,2.1-7.1,3.7
					c-0.5,0.4-0.9,0.7-1.3,1.1c-1.1,1-2.1,2.2-3,3.4L466.3,513.3z"/>
			</g>
		</g>
	</g>
	<g>
		<g>
			<g>
				<g>
					<path class="st10" d="M300.1,150.4c0,33.7-11.1,64.8-29.8,89.8c-1.7,2.3-3.5,4.5-5.3,6.6c-1,1.2-2.1,2.4-3.1,3.6
						c-0.9,1.1-1.9,2.1-2.9,3.1c-27.3,28.9-66,46.9-109,46.9c-42.9,0-81.6-18-109-46.9c0,0,0,0,0,0c0,0-0.1-0.1-0.1-0.1
						c-2.1-2.2-4-4.4-6-6.7c-1.8-2.2-3.6-4.4-5.3-6.6C11.1,215.2,0,184.1,0,150.4c0-82.9,67.2-150,150.1-150
						C232.9,0.4,300.1,67.6,300.1,150.4z"/>
				</g>
			</g>
			<g>
				<g>
					<path class="st11" d="M259.1,253.5C259.1,253.5,259.1,253.6,259.1,253.5l-0.1,0.1c-0.3,0.3-0.5,0.6-0.8,0.8
						c-0.5,0.6-1,1.1-1.6,1.6c-0.3,0.3-0.7,0.7-1.1,1.1c-0.5,0.6-1.1,1.1-1.6,1.6c-0.4,0.4-0.7,0.7-1.1,1.1c-0.5,0.5-1.1,1-1.6,1.5
						c-8.8,8-18.6,15-29.2,20.8c-3.4,1.9-6.9,3.6-10.4,5.2c-18.8,8.5-39.6,13.1-61.5,13.1c-20.9,0-40.9-4.3-59-12
						c-0.8-0.4-1.7-0.7-2.5-1.1C74,280.8,60.7,272,49,261.4c-0.6-0.5-1.1-1-1.7-1.5c-0.4-0.3-0.8-0.7-1.1-1c-0.6-0.5-1.1-1-1.6-1.6
						c-0.4-0.3-0.7-0.7-1.1-1.1c-0.5-0.6-1.1-1.1-1.6-1.6c-0.3-0.3-0.6-0.6-0.8-0.9c0,0,0,0,0,0c0-0.1,0-0.1,0-0.1l15.1-21.4
						c3.8-5.3,9.2-9.2,15.4-11.1c0,0,0.1,0,0.1-0.1c2.8-0.9,6.2-1.9,10-2.9c6.6-1.9,14.4-3.9,22.7-5.8c15.4-3.5,32.3-6.5,45.7-6.5
						h0.1c13.4,0,30.3,3,45.7,6.5c8.2,1.9,16.1,3.9,22.7,5.8c3.8,1,7.1,2,10,2.9c0,0,0.1,0,0.2,0.1c3.5,1.1,6.7,2.8,9.5,5
						c0.6,0.5,1.2,1,1.8,1.5c1.5,1.4,2.8,2.9,4,4.6L259.1,253.5z"/>
				</g>
			</g>
			<path class="st12" d="M212.4,218.5L212.4,218.5c0,34.4-28,62.5-62.4,62.5c-34.4,0-62.4-28-62.4-62.4v-0.1c0-3.4,2.4-6.2,5.7-6.9
				c0.1,0,0.1,0,0.2,0c19.4-4.2,39.9-7.5,56.5-7.6h0.1c16.5,0,36.9,3.3,56.2,7.5c0.1,0,0.3,0,0.4,0.1
				C210,212.2,212.4,215.1,212.4,218.5z"/>
			<path class="st13" d="M206.3,211.4c-0.6,34-25.7,61.5-56.4,61.5c-30.7,0-55.8-27.4-56.4-61.4c19.4-4.2,39.9-7.5,56.5-7.6h0.1
				C166.6,203.9,187.1,207.3,206.3,211.4z"/>
			<g>
				<path class="st4" d="M186.5,216.4v-48.9h-72.9v48.9c0,0,0,0.1,0,0.1c0,20.1,16.3,36.4,36.4,36.4
					C170.2,253,186.5,236.7,186.5,216.4C186.5,216.5,186.5,216.5,186.5,216.4z"/>
				<path class="st5" d="M181.1,167.5h-67.5v13.3c8.3,14.9,19.7,21.4,32.8,23.5c5.5,0.9,12.9,1.3,20,1.4c8.2,0.2,14.7,6.9,14.7,15.1
					l0,0c0,10.3-4.3,19.6-11.2,26.3c10-6.5,16.5-17.8,16.5-30.5v-10.9v-38.1H181.1z"/>
			</g>
			<g>
				<g>
					<g>
						<ellipse class="st4" cx="94.3" cy="140.2" rx="20.7" ry="22.1"/>
						<path class="st5" d="M94.3,155.5c-7.7,0-14-6.9-14-15.3c0-8.4,6.3-15.3,14-15.3c7.7,0,14,6.9,14,15.3
							C108.3,148.6,102,155.5,94.3,155.5z"/>
					</g>
					<g>
						<ellipse class="st4" cx="205.8" cy="140.2" rx="20.7" ry="22.1"/>
						<path class="st5" d="M205.8,155.5c-7.7,0-14-6.9-14-15.3c0-8.4,6.3-15.3,14-15.3c7.7,0,14,6.9,14,15.3
							C219.8,148.6,213.5,155.5,205.8,155.5z"/>
					</g>
				</g>
				<path class="st6" d="M173.2,52.3c18.1,0,32.8,14.7,32.8,32.8v48.2h-0.1c-0.7,27.3-9.6,38.9-23.1,50.9
					c-9.2,8.2-20.5,14.5-32.8,14.5c-12.3,0-23.7-6.4-32.9-14.6c-13.4-12-22.3-23.6-23-50.8c0-1.1,0-2.2,0-3.4V85.1
					c0-18.1,14.7-32.8,32.8-32.8H173.2z"/>
				<g>
					<g>
						<path class="st5" d="M171.6,143.4c0,0,0-0.1,0.1-0.3c0.1-0.2,0.2-0.4,0.4-0.7c0.4-0.6,1-1.4,1.8-2.3c0.9-0.9,2-1.8,3.5-2.4
							c1.4-0.7,3.1-1.1,4.7-1.3c0.4,0,0.8,0,1.3,0c0.4,0,0.8,0,1.2,0.1c0.8,0.1,1.6,0.3,2.4,0.5c1.5,0.5,2.8,1.2,3.8,2
							c1,0.7,1.7,1.5,2.1,2.1c0.2,0.3,0.4,0.5,0.5,0.7c0.1,0.2,0.2,0.2,0.2,0.2s-0.3-0.3-0.8-0.7c-0.5-0.5-1.3-1-2.4-1.6
							c-1-0.6-2.3-1.1-3.7-1.5c-0.7-0.2-1.4-0.3-2.2-0.4c-0.4,0-0.7-0.1-1.1-0.1c-0.4,0-0.8,0-1.1,0c-0.8,0.1-1.5,0.2-2.2,0.3
							c-0.7,0.2-1.4,0.4-2.1,0.7c-1.3,0.5-2.5,1.2-3.4,1.9c-0.9,0.7-1.7,1.4-2.1,1.9C171.9,143.1,171.6,143.4,171.6,143.4z"/>
					</g>
					<g>
						<path class="st5" d="M128.8,143.4c0,0-0.3-0.3-0.7-0.8c-0.5-0.5-1.2-1.2-2.1-1.9c-0.9-0.7-2.1-1.4-3.4-1.9
							c-0.7-0.3-1.4-0.5-2.1-0.7c-0.7-0.2-1.5-0.3-2.2-0.3c-0.4,0-0.8,0-1.1,0c-0.4,0-0.8,0-1.1,0.1c-0.7,0.1-1.5,0.2-2.2,0.4
							c-1.4,0.4-2.6,0.9-3.7,1.5c-1,0.6-1.8,1.1-2.4,1.6c-0.5,0.5-0.8,0.7-0.8,0.7s0.1-0.1,0.2-0.2c0.1-0.2,0.3-0.4,0.5-0.7
							c0.5-0.5,1.1-1.3,2.1-2.1c1-0.8,2.3-1.5,3.8-2c0.7-0.2,1.5-0.4,2.4-0.5c0.4,0,0.8-0.1,1.2-0.1c0.4,0,0.8,0,1.3,0
							c1.7,0.1,3.3,0.6,4.7,1.3c1.4,0.7,2.6,1.6,3.5,2.4c0.9,0.9,1.5,1.7,1.8,2.3c0.2,0.3,0.3,0.6,0.4,0.7
							C128.8,143.3,128.8,143.4,128.8,143.4z"/>
					</g>
				</g>
			</g>
			<g>
				<g>
					<g>
						<path class="st14" d="M87.6,119.4c-0.2-5.1-0.2-10.2-0.6-15.2c-0.3-3.5-1.8-6.6-2.7-9.9c-0.8-3.2-1.1-6.6-0.8-9.9
							c0.6-6.7,3.5-13.2,8.4-17.9c-6.1-2-11.4-6.2-14.9-11.5c8.2,1.8,17.1,0.5,24.5-3.6c1.7-1,3.4-2.1,5-3.3
							c6.4-4.6,12.4-9.7,19.2-13.8c10.3-6.1,20.9-7.3,32.6-6.3c10.3,1,20.6,4.6,27.2,12.9c2.1,2.7,2.9,7.2,2.5,10.5
							c0.5-4.1,0.9-8.3-0.7-12.1c2.6,3.1,4,6.8,4.3,10.9c0,0.4,0.3,5.9,0.3,5.9c0.4,0,0.7,0,1.1,0c2.9-0.2,5.9,0.2,8.7,1.1
							c1.8,0.6,4.1,1.3,5.5,2.6c-2.2-0.1-4.3-0.2-6.5-0.3c12.4,4.3,15.7,20.5,13.2,31.9c-0.7,3.2-1.8,6.2-2.1,9.5
							c-0.3,4.4,0.3,5.2,0.4,9.6c0,0.5-6.3,2.5-6.7,2.5v-13c0-20.8-16.6-37.6-37.1-37.6c0,0-36.8,0-36.8,0
							c-11.3,0-22.1,5.3-29.1,14.3c-4.6,5.9-7,13-7.8,20.4c-0.4,3.3-0.2,6.7,0,10c0.1,1.5,0.3,3,0.4,4.5c0.1,1.4-0.5,2.9-0.7,4.3
							c-0.3,2.5-0.4,5-0.5,7.4c-0.1,2-1.7,2.7-3.2,3.9c-0.5,0.4-3.1,1.9-3,2.6C87.8,126.4,87.7,122.9,87.6,119.4z"/>
					</g>
				</g>
				<g>
					<g>
						<g>
							<path class="st14" d="M89.7,140.2h4.8v-29.6h-6.7v27.8C87.9,139.3,88.7,140.2,89.7,140.2z"/>
						</g>
						<g>
							<path class="st14" d="M210.4,140.2h-4.8v-29.6h6.7v27.8C212.3,139.3,211.4,140.2,210.4,140.2z"/>
						</g>
					</g>
				</g>
				<g>
					<g>
						<path class="st14" d="M181.6,85c-3.6,7.3-9.2,13.5-15.9,18.1c-6.6,4.7-14.3,7.9-22.1,9.8c4-2.2,7.4-5.5,9.7-9.4
							c-3.9,2.6-8,4.2-12.6,4.8c-7.8,1-15.7,1.6-23.5,1.1c-5.8-0.3-12.2-0.3-16.5,4.2c-4.1,4.3-5.9,11-6.1,16.8
							c0.1-1.9-2.1-4.5-2.7-6.3c-0.9-2.7-1.3-5.8-1.7-8.6c-0.9-6.2-1.2-12.6-0.8-18.8c0.2-3.4,1.1-6.1,2.2-9.3
							c0.9-2.8,0.9-5.8,1.8-8.7c1.7-5.2,4.9-9.9,9-13.5c12.4-11.1,30.9-13.1,46.8-13.1c61.6,0,62,40.2,62,40.2
							c-0.7,4.7-1.4,9.3-2.1,14c0,1.8-0.7,3.8-1,5.6c-0.3,2-0.3,3.9,0,6c0.2,1.3,0.6,2.7,0.3,4c0,1-0.4,2.1-0.9,3.1
							c-0.4,0.7-0.8,1.4-1.1,2c0.3-0.5-0.8-3.2-1-3.9c-0.4-1.3-0.8-2.5-1.1-3.8c-0.9-3.6-2.1-7-4.2-10c-3.7-5.4-10.5-7.3-14.6-12.2
							C182.4,93.8,180.8,89.3,181.6,85z"/>
					</g>
				</g>
			</g>
			<g>
				<path class="st8" d="M156.6,151.3l-2.3,2.8c-2.4,2.9-6.2,2.9-8.5,0l-2.3-2.8c-0.7-0.8-0.2-2.2,0.7-2.2h11.6
					C156.8,149.1,157.2,150.5,156.6,151.3z"/>
			</g>
			<g>
				<path class="st15" d="M179.5,130.5c0,4.9-2.8,8.9-6.2,8.9c-3.4,0-6.2-4-6.2-8.9s2.8-8.9,6.2-8.9
					C176.7,121.6,179.5,125.6,179.5,130.5z"/>
				<path d="M173.2,136.6c-1.7,0-3.5-2.6-3.5-6.2c0-3.5,1.8-6.2,3.5-6.2s3.5,2.6,3.5,6.2C176.7,134,174.9,136.6,173.2,136.6z"/>
			</g>
			<g>
				<path class="st15" d="M120.7,130.5c0,4.9,2.8,8.9,6.2,8.9c3.4,0,6.2-4,6.2-8.9s-2.8-8.9-6.2-8.9
					C123.5,121.6,120.7,125.6,120.7,130.5z"/>
				<path d="M126.9,136.6c-1.7,0-3.5-2.6-3.5-6.2c0-3.5,1.8-6.2,3.5-6.2c1.7,0,3.5,2.6,3.5,6.2C130.4,134,128.5,136.6,126.9,136.6z"
					/>
			</g>
			<g>
				<g>
					<path class="st14" d="M131.7,110.6c-3.7-0.4-7.5-0.1-11.1,0.9c-1.8,0.5-3.5,1.2-5.2,1.9c-1.5,0.6-4.7,2.5-4.7,4.5
						c0,1.1,2.7-0.8,3.4-1.1c2.9-1.2,5.9-2.2,9-2.5c3.3-0.3,6.2,0.2,9.3,1.4c1.8,0.7,3.4,1.8,5.3,2.3c1,0.2,2.4,0,3.2-0.8
						c0.5-0.5,0.5-1.2,0.4-2c-0.1-0.9-0.5-1.7-1-2.5c-0.2-0.3-0.5-0.6-0.7-0.9c0,0.3,0,0.7,0.1,1c-0.1-0.3-0.7-0.4-0.9-0.5
						C136.4,111.5,134.1,110.9,131.7,110.6z"/>
				</g>
			</g>
			<g>
				<g>
					<path class="st14" d="M167.5,110.6c3.7-0.4,7.5-0.1,11.1,0.9c1.8,0.5,3.5,1.2,5.2,1.9c1.5,0.6,4.7,2.5,4.7,4.5
						c0,1.1-2.7-0.8-3.4-1.1c-2.9-1.2-5.9-2.2-9-2.5c-3.3-0.3-6.2,0.2-9.3,1.4c-1.8,0.7-3.4,1.8-5.3,2.3c-1,0.2-2.4,0-3.2-0.8
						c-0.5-0.5-0.5-1.2-0.4-2c0.1-0.9,0.5-1.7,1-2.5c0.2-0.3,0.5-0.6,0.7-0.9c0,0.3,0,0.7-0.1,1c0.1-0.3,0.7-0.4,0.9-0.5
						C162.8,111.5,165.1,110.9,167.5,110.6z"/>
				</g>
			</g>
			<g>
				<g>
					<path class="st5" d="M148.7,172.7c-10.8,0-18-4.9-18.2-5c-0.6-0.4-0.8-1.3-0.3-1.9c0.4-0.6,1.3-0.8,1.9-0.3
						c0.7,0.5,16.4,11,35.9-1.4c0.6-0.4,1.5-0.2,1.9,0.4c0.4,0.6,0.2,1.5-0.4,1.9C161.9,171.1,154.8,172.7,148.7,172.7z"/>
				</g>
			</g>
		</g>
		<g>
			<path class="st16" d="M113.6,210.3l36.4,42.7c0,0-24.6,4-32.5,30.5c0,0-6.7-49.4-24-68.6l6.3-18.2c0.4-1,1.1-1.8,2.1-2.3l11.6-5
				V210.3z"/>
			<path class="st17" d="M113.6,210.3l-8.9-10.6c-0.8-0.9-0.5-2.3,0.6-2.8l8.2-3.8V210.3z"/>
		</g>
		<g>
			<path class="st16" d="M186.5,210.3L150.1,253c0,0,24.6,4,32.5,30.5c0,0,7.5-59.1,24-68.6l-6.3-18.2c-0.4-1-1.1-1.8-2.1-2.3
				l-11.6-5V210.3z"/>
			<path class="st17" d="M186.5,210.3l8.9-10.6c0.8-0.9,0.5-2.3-0.6-2.8l-8.2-3.8V210.3z"/>
		</g>
	</g>
	<g>
		<g>
			<g>
				<path class="st18" d="M423.7,674.2c0,25-8.2,48.1-22.1,66.7c-1.3,1.7-2.6,3.3-3.9,4.9c-0.8,0.9-1.5,1.8-2.3,2.7
					c-0.7,0.8-1.4,1.6-2.1,2.3c-20.3,21.4-49,34.8-80.9,34.8c-31.8,0-60.6-13.4-80.9-34.8c0,0,0,0,0,0c0,0,0,0-0.1-0.1
					c-1.5-1.6-3-3.3-4.4-5c-1.3-1.6-2.6-3.2-3.9-4.9c-13.9-18.6-22.1-41.6-22.1-66.7c0-61.5,49.9-111.4,111.4-111.4
					C373.9,562.9,423.7,612.7,423.7,674.2z"/>
			</g>
			<g>
				<g>
					<path class="st19" d="M393.3,750.8C393.3,750.8,393.3,750.8,393.3,750.8L393.3,750.8c-0.2,0.3-0.4,0.5-0.7,0.7
						c-0.4,0.4-0.8,0.8-1.2,1.2c-0.3,0.3-0.5,0.5-0.8,0.8c-0.4,0.4-0.8,0.8-1.2,1.2c-0.3,0.3-0.5,0.5-0.8,0.8
						c-0.4,0.4-0.8,0.8-1.2,1.1c-6.5,6-13.8,11.2-21.6,15.4c-2.5,1.4-5.1,2.7-7.7,3.8c-11.7,5.3-24.5,8.6-37.9,9.5
						c-2.6,0.2-5.1,0.3-7.8,0.3c-2.6,0-5.2-0.1-7.8-0.3c-12.7-0.9-24.8-3.9-36-8.7c-0.6-0.3-1.3-0.5-1.9-0.8
						c-10.8-4.9-20.7-11.4-29.4-19.3c-0.4-0.4-0.8-0.7-1.2-1.1c-0.3-0.2-0.6-0.5-0.8-0.8c-0.4-0.4-0.8-0.8-1.2-1.2
						c-0.3-0.3-0.5-0.5-0.8-0.8c-0.4-0.4-0.8-0.8-1.2-1.2c-0.2-0.2-0.4-0.4-0.6-0.6c0,0,0,0,0,0c0,0,0-0.1,0-0.1l11.2-15.9
						c2.8-4,6.8-6.8,11.4-8.2c0,0,0.1,0,0.1,0c2.1-0.6,4.6-1.4,7.4-2.1c4.9-1.4,10.7-2.9,16.8-4.3c11.4-2.6,24-4.8,33.9-4.8h0
						c9.9,0,22.5,2.2,33.9,4.8c6.1,1.4,11.9,2.9,16.8,4.3c2.8,0.8,5.3,1.5,7.4,2.1c0,0,0.1,0,0.1,0c2.6,0.8,5,2,7.1,3.7
						c0.5,0.4,0.9,0.7,1.3,1.1c1.1,1,2.1,2.2,3,3.4L393.3,750.8z"/>
				</g>
			</g>
			<g>
				<g>
					<path class="st20" d="M320.1,785.3c-2.6,0.2-5.1,0.3-7.8,0.3c-2.6,0-5.2-0.1-7.8-0.3l3.8-25.1h7.9L320.1,785.3z"/>
					<path class="st20" d="M317.4,759.7h-9.5c-0.8,0-1.5-0.6-1.6-1.3l-1.4-8.9c-0.2-1,0.6-1.8,1.6-1.8h12.4c1,0,1.8,0.9,1.6,1.8
						l-1.4,8.9C318.8,759.1,318.1,759.7,317.4,759.7z"/>
					<path class="st20" d="M316.1,758.6h-7.5c-0.6,0-1.2,0.6-1.2,1.2v0.8c0,0.7,0.5,1.2,1.2,1.2h7.5c0.6,0,1.2-0.6,1.2-1.2v-0.8
						C317.3,759.1,316.8,758.6,316.1,758.6z"/>
				</g>
			</g>
			<g>
				<path class="st4" d="M339.4,723.2v-36.3h-54.1v36.3c0,0,0,0,0,0.1c0,14.9,12.1,27,27,27C327.3,750.3,339.4,738.2,339.4,723.2
					C339.4,723.3,339.4,723.2,339.4,723.2z"/>
				<path class="st5" d="M335.4,686.9h-50.1v9.8c6.2,11,14.6,15.9,24.4,17.5c4.1,0.7,9.6,1,14.8,1.1c6.1,0.1,10.9,5.1,10.9,11.2l0,0
					c0,7.7-3.2,14.6-8.3,19.5c7.4-4.8,12.3-13.2,12.3-22.7v-8.1v-28.3H335.4z"/>
			</g>
			<g>
				<g>
					<g>
						<ellipse class="st4" cx="271" cy="666.6" rx="15.4" ry="16.4"/>
						<path class="st5" d="M271,678c-5.7,0-10.4-5.1-10.4-11.4c0-6.3,4.7-11.4,10.4-11.4s10.4,5.1,10.4,11.4
							C281.3,672.9,276.7,678,271,678z"/>
					</g>
					<g>
						<ellipse class="st4" cx="353.8" cy="666.6" rx="15.4" ry="16.4"/>
						<path class="st5" d="M353.8,678c-5.7,0-10.4-5.1-10.4-11.4c0-6.3,4.7-11.4,10.4-11.4s10.4,5.1,10.4,11.4
							C364.1,672.9,359.5,678,353.8,678z"/>
					</g>
				</g>
				<path class="st6" d="M329.5,601.4c13.4,0,24.3,10.9,24.3,24.3v35.7h-0.1c-0.5,20.3-7.1,28.9-17.1,37.8
					c-6.8,6.1-15.2,10.8-24.3,10.8c-9.1,0-17.6-4.7-24.4-10.9c-9.9-8.9-16.5-17.5-17-37.7c0-0.8,0-1.6,0-2.5v-33.2
					c0-13.4,10.9-24.3,24.3-24.3H329.5z"/>
				<g>
					<g>
						<path class="st5" d="M328.4,669c0,0,0-0.1,0.1-0.2c0.1-0.1,0.1-0.3,0.3-0.5c0.3-0.4,0.7-1.1,1.4-1.7c0.6-0.7,1.5-1.3,2.6-1.8
							c1-0.5,2.3-0.8,3.5-0.9c0.3,0,0.6,0,0.9,0c0.3,0,0.6,0,0.9,0.1c0.6,0.1,1.2,0.2,1.8,0.4c1.1,0.4,2.1,0.9,2.8,1.4
							c0.7,0.5,1.2,1.1,1.6,1.5c0.2,0.2,0.3,0.4,0.4,0.5c0.1,0.1,0.1,0.2,0.1,0.2s-0.2-0.2-0.6-0.5c-0.4-0.3-1-0.8-1.8-1.2
							c-0.8-0.4-1.7-0.8-2.7-1.1c-0.5-0.1-1.1-0.2-1.6-0.3c-0.3,0-0.5,0-0.8,0c-0.3,0-0.6,0-0.8,0c-0.6,0-1.1,0.1-1.7,0.2
							c-0.5,0.1-1.1,0.3-1.6,0.5c-1,0.4-1.9,0.9-2.5,1.4c-0.7,0.5-1.2,1-1.6,1.4C328.6,668.8,328.4,669,328.4,669z"/>
					</g>
					<g>
						<path class="st5" d="M296.6,669c0,0-0.2-0.2-0.6-0.6c-0.3-0.4-0.9-0.9-1.6-1.4c-0.7-0.5-1.6-1-2.5-1.4c-0.5-0.2-1-0.4-1.6-0.5
							c-0.5-0.1-1.1-0.2-1.7-0.2c-0.3,0-0.6,0-0.8,0c-0.3,0-0.6,0-0.8,0c-0.5,0.1-1.1,0.1-1.6,0.3c-1,0.3-2,0.7-2.7,1.1
							c-0.8,0.4-1.4,0.8-1.8,1.2c-0.4,0.3-0.6,0.5-0.6,0.5s0-0.1,0.1-0.2c0.1-0.1,0.2-0.3,0.4-0.5c0.3-0.4,0.8-1,1.6-1.5
							c0.7-0.6,1.7-1.1,2.8-1.4c0.6-0.2,1.1-0.3,1.8-0.4c0.3,0,0.6-0.1,0.9-0.1c0.3,0,0.6,0,0.9,0c1.2,0.1,2.5,0.4,3.5,0.9
							c1.1,0.5,1.9,1.2,2.6,1.8c0.7,0.6,1.1,1.3,1.4,1.7c0.2,0.2,0.2,0.4,0.3,0.5C296.6,668.9,296.6,669,296.6,669z"/>
					</g>
				</g>
			</g>
			<g>
				<g>
					<g>
						<path class="st21" d="M266,651.2c-0.1-1.8,0.3-3.5,0.3-5.3c0-2.3-1.2-4.6-1.8-6.8c-2-7-1.6-14.7,1.3-21.4
							c0.7-1.7,1.6-3.3,2.6-4.7c1.1-1.7,2.6-3.3,4.6-3.9c-2.2-1.8-3.9-4.2-4.9-6.8c1.6,1.7,3.8,2.9,6.1,3.4
							c-2.7-1.4-3.7-4.8-3.9-7.8c-0.4-7.6,2.7-15.3,8.2-20.5c-1,3.1,0,6.8,3,8.5c-2.6-3.9-2.5-9.3,0.2-13.2
							c-0.4,0.5,0.5,2.7,0.8,3.3c0.6,1.2,1.5,2.3,2.4,3.2c1.8,1.9,4.1,3.4,6.5,4.3c4,1.6,8.4,1.9,12.6,1.3c3.3-0.5,6.5-1.5,9.8-1.9
							c1.3-0.1,2.5-0.2,3.8-0.2c4.3,0,8.7,0.8,12.6,2.7c5.6,2.8,11,8.7,10.2,15.3c0.4-3,0.7-6.2-0.5-9c1.9,2.3,3,5.1,3.2,8.1
							c0,0.3,0.2,4.4,0.2,4.4c0.3,0,0.5,0,0.8,0c2.2-0.1,4.3,0.2,6.4,0.8c1.3,0.4,3,1,4.1,1.9c-1.6-0.1-3.2-0.2-4.8-0.3
							c9.2,3.2,11.6,15.2,9.8,23.7c-0.5,2.4-1.4,4.6-1.5,7c-0.2,3.2,0.2,3.9,0.3,7.1c0,0.4-4.7,1.9-5,1.9v-9.7
							c0-15.4-12.3-27.9-27.5-27.9c0,0-27.3,0-27.3,0c-8.4,0-16.4,4-21.6,10.6c-3.4,4.4-5.2,9.7-5.8,15.1c-0.3,2.5-0.1,5,0,7.4
							c0.1,1.1,0.2,2.2,0.3,3.4c0.1,1-0.4,2.2-0.5,3.2c-0.2,1.8-0.3,3.7-0.4,5.5c-0.1,1.5-1.3,2-2.3,2.9c-0.4,0.3-2.3,1.4-2.2,2
							C266.2,656.4,266.1,653.8,266,651.2z"/>
					</g>
				</g>
				<g>
					<g>
						<g>
							<path class="st21" d="M268.1,666.6h3.1v-22h-5v20.1C266.2,665.8,267,666.6,268.1,666.6z"/>
						</g>
						<g>
							<path class="st21" d="M356.7,666.6h-3.1v-22h5v20.1C358.5,665.8,357.7,666.6,356.7,666.6z"/>
						</g>
					</g>
				</g>
				<g>
					<g>
						<path class="st21" d="M335.6,625.7c0-0.5-0.1-0.9-0.1-1.4l-49.4,0c0.1,2.7,0.2,5.5-0.2,8.1c-0.5,2.7-1.5,5.3-3.5,7.2
							c-0.7,0.7-1.6,1.3-2.4,2c-5.5,4.4-8.6,10.7-8.9,17.8c0.1-1.4-1.6-3.4-2-4.7c-0.7-2-1-4.3-1.3-6.4c-0.7-4.6-0.9-9.3-0.6-14
							c0.2-2.6,0.8-4.6,1.6-6.9c0.7-2,0.6-4.3,1.3-6.4c1.3-3.9,3.6-7.3,6.7-10c9.2-8.2,23-9.7,34.7-9.7c45.7,0,46.1,29.8,46.1,29.8
							c-0.5,3.5-1,6.9-1.6,10.4c0,1.4-0.5,2.8-0.7,4.2c-0.2,1.5-0.2,2.9,0,4.4c0.1,1,0.4,2,0.2,3c0,0.8-0.3,1.6-0.7,2.3
							c-0.3,0.5-0.6,1.1-0.8,1.5c0.2-0.4-0.6-2.4-0.7-2.9c-0.3-0.9-0.6-1.9-0.8-2.8c-0.7-2.6-1.6-5.2-3.1-7.4
							c-2.7-4-7.8-5.4-10.9-9.1C336.2,631.9,335.8,629,335.6,625.7z"/>
					</g>
				</g>
			</g>
			<g>
				<path class="st8" d="M317.2,674.9l-1.7,2.1c-1.7,2.1-4.6,2.1-6.3,0l-1.7-2.1c-0.5-0.6-0.1-1.6,0.5-1.6h8.6
					C317.4,673.2,317.7,674.3,317.2,674.9z"/>
			</g>
			<g>
				<path class="st7" d="M334.2,659.4c0,3.6-2.1,6.6-4.6,6.6c-2.5,0-4.6-2.9-4.6-6.6c0-3.6,2.1-6.6,4.6-6.6
					C332.1,652.8,334.2,655.8,334.2,659.4z"/>
				<path class="st9" d="M329.6,664c-1.2,0-2.6-2-2.6-4.6c0-2.6,1.4-4.6,2.6-4.6s2.6,2,2.6,4.6C332.2,662,330.8,664,329.6,664z"/>
			</g>
			<g>
				<path class="st7" d="M290.6,659.4c0,3.6,2.1,6.6,4.6,6.6s4.6-2.9,4.6-6.6c0-3.6-2.1-6.6-4.6-6.6S290.6,655.8,290.6,659.4z"/>
				<path class="st9" d="M295.2,664c-1.2,0-2.6-2-2.6-4.6c0-2.6,1.4-4.6,2.6-4.6s2.6,2,2.6,4.6C297.8,662,296.4,664,295.2,664z"/>
			</g>
			<g>
				<g>
					<path class="st21" d="M298.7,644.7c-2.8-0.3-5.6-0.1-8.2,0.6c-1.3,0.4-2.6,0.9-3.9,1.4c-1.1,0.5-3.5,1.8-3.5,3.4
						c0,0.8,2-0.6,2.5-0.8c2.1-0.9,4.4-1.6,6.7-1.8c2.4-0.2,4.6,0.2,6.9,1c1.3,0.5,2.5,1.4,3.9,1.7c0.8,0.2,1.8,0,2.3-0.6
						c0.4-0.4,0.4-0.9,0.3-1.4c-0.1-0.7-0.4-1.3-0.8-1.8c-0.2-0.2-0.3-0.4-0.5-0.6c0,0.2,0,0.5,0,0.7c0-0.2-0.5-0.3-0.7-0.4
						C302.3,645.3,300.5,644.9,298.7,644.7z"/>
				</g>
			</g>
			<g>
				<g>
					<path class="st21" d="M325.3,644.7c2.8-0.3,5.6-0.1,8.2,0.6c1.3,0.4,2.6,0.9,3.9,1.4c1.1,0.5,3.5,1.8,3.5,3.4
						c0,0.8-2-0.6-2.5-0.8c-2.1-0.9-4.4-1.6-6.7-1.8c-2.4-0.2-4.6,0.2-6.9,1c-1.3,0.5-2.5,1.4-3.9,1.7c-0.8,0.2-1.8,0-2.3-0.6
						c-0.4-0.4-0.4-0.9-0.3-1.4c0.1-0.7,0.4-1.3,0.8-1.8c0.2-0.2,0.3-0.4,0.5-0.6c0,0.2,0,0.5,0,0.7c0-0.2,0.5-0.3,0.7-0.4
						C321.8,645.3,323.5,644.9,325.3,644.7z"/>
				</g>
			</g>
			<g>
				<g>
					<path class="st5" d="M311.4,690.7c-8,0-13.4-3.7-13.5-3.7c-0.5-0.3-0.6-0.9-0.2-1.4c0.3-0.5,0.9-0.6,1.4-0.3
						c0.5,0.3,12.1,8.2,26.7-1.1c0.5-0.3,1.1-0.2,1.4,0.3c0.3,0.5,0.2,1.1-0.3,1.4C321.2,689.6,315.9,690.7,311.4,690.7z"/>
				</g>
			</g>
		</g>
		<g>
			<path class="st22" d="M285.3,718.7l27,31.7c0,0-18.2,3-24.1,22.6c0,0-5-36.7-17.8-50.9l4.7-13.5c0.3-0.8,0.8-1.4,1.6-1.7l8.6-3.7
				V718.7z"/>
			<path class="st23" d="M285.3,718.7l-6.6-7.9c-0.6-0.7-0.3-1.7,0.5-2.1l6.1-2.8V718.7z"/>
		</g>
		<g>
			<path class="st22" d="M339.4,718.7l-27,31.7c0,0,18.2,3,24.1,22.6c0,0,5.6-43.9,17.8-50.9l-4.7-13.5c-0.3-0.8-0.8-1.4-1.6-1.7
				l-8.6-3.7V718.7z"/>
			<path class="st23" d="M339.4,718.7l6.6-7.9c0.6-0.7,0.3-1.7-0.5-2.1l-6.1-2.8V718.7z"/>
		</g>
	</g>
	<g>
		<g>
			<g>
				<path class="st18" d="M190.2,436.7c0,25-8.2,48.1-22.1,66.7c-1.3,1.7-2.6,3.3-3.9,4.9c-0.8,0.9-1.5,1.8-2.3,2.7
					c-0.7,0.8-1.4,1.6-2.1,2.3c-20.3,21.4-49,34.8-80.9,34.8c-31.8,0-60.6-13.4-80.9-34.8c0,0,0,0,0,0c0,0,0,0-0.1-0.1
					c-1.5-1.6-3-3.3-4.4-5c-1.3-1.6-2.6-3.2-3.9-4.9c-13.9-18.6-22.1-41.6-22.1-66.7c0-61.5,49.9-111.4,111.4-111.4
					C140.3,325.4,190.2,375.2,190.2,436.7z"/>
			</g>
			<g>
				<path class="st24" d="M159.7,513.3C159.7,513.3,159.7,513.3,159.7,513.3L159.7,513.3c-0.2,0.3-0.4,0.5-0.7,0.7
					c-0.4,0.4-0.8,0.8-1.2,1.2c-0.3,0.3-0.5,0.5-0.8,0.8c-0.4,0.4-0.8,0.8-1.2,1.2c-0.3,0.3-0.5,0.5-0.8,0.8
					c-0.4,0.4-0.8,0.8-1.2,1.1c-6.5,6-13.8,11.2-21.6,15.4c-2.5,1.4-5.1,2.7-7.7,3.8c-13.9,6.3-29.4,9.8-45.6,9.8
					c-15.5,0-30.3-3.2-43.8-8.9c-0.6-0.3-1.3-0.5-1.9-0.8c-10.8-4.9-20.7-11.4-29.4-19.3c-0.4-0.4-0.8-0.7-1.2-1.1
					c-0.3-0.2-0.6-0.5-0.8-0.8c-0.4-0.4-0.8-0.8-1.2-1.2c-0.3-0.3-0.5-0.5-0.8-0.8c-0.4-0.4-0.8-0.8-1.2-1.2
					c-0.2-0.2-0.4-0.4-0.6-0.6c0,0,0,0,0,0c0,0,0-0.1,0-0.1l11.2-15.9c2.8-4,6.8-6.8,11.4-8.2c0,0,0.1,0,0.1,0
					c2.1-0.6,4.6-1.4,7.4-2.1c4.9-1.4,10.7-2.9,16.8-4.3c11.4-2.6,24-4.8,33.9-4.8h0c9.9,0,22.5,2.2,33.9,4.8
					c6.1,1.4,11.9,2.9,16.8,4.3c2.8,0.8,5.3,1.5,7.4,2.1c0,0,0.1,0,0.1,0c2.6,0.8,5,2,7.1,3.7c0.5,0.4,0.9,0.7,1.3,1.1
					c1.1,1,2.1,2.2,3,3.4L159.7,513.3z"/>
				<g>
					<path class="st25" d="M78.8,539.4c-5,0-9.6-2.6-12.2-6.9l-18.6-31h61.5l-18.6,31C88.4,536.8,83.8,539.4,78.8,539.4z"/>
					<path class="st13" d="M73.2,528.6l-11.6-19.4h34.5l-11.6,19.4C81.9,532.8,75.7,532.8,73.2,528.6z"/>
				</g>
			</g>
			<g>
				<path class="st4" d="M105.8,485.7v-36.3H51.7v36.3c0,0,0,0,0,0.1c0,14.9,12.1,27,27,27C93.7,512.9,105.8,500.7,105.8,485.7
					C105.8,485.8,105.8,485.8,105.8,485.7z"/>
				<path class="st5" d="M101.9,449.4H51.7v9.8c6.2,11,14.6,15.9,24.4,17.5c4.1,0.7,9.6,1,14.8,1.1c6.1,0.1,10.9,5.1,10.9,11.2v0
					c0,7.7-3.2,14.6-8.3,19.5c7.4-4.8,12.3-13.2,12.3-22.7v-8.1v-28.3H101.9z"/>
			</g>
			<g>
				<g>
					<g>
						<ellipse class="st4" cx="37.4" cy="429.1" rx="15.4" ry="16.4"/>
						<path class="st5" d="M37.4,440.5c-5.7,0-10.4-5.1-10.4-11.4c0-6.3,4.7-11.4,10.4-11.4s10.4,5.1,10.4,11.4
							C47.8,435.4,43.1,440.5,37.4,440.5z"/>
					</g>
					<g>
						<ellipse class="st4" cx="120.2" cy="429.1" rx="15.4" ry="16.4"/>
						<path class="st5" d="M120.2,440.5c-5.7,0-10.4-5.1-10.4-11.4c0-6.3,4.7-11.4,10.4-11.4c5.7,0,10.4,5.1,10.4,11.4
							C130.5,435.4,125.9,440.5,120.2,440.5z"/>
					</g>
				</g>
				<path class="st6" d="M96,363.9c13.4,0,24.3,10.9,24.3,24.3V424h-0.1c-0.5,20.3-7.1,28.9-17.1,37.8c-6.8,6.1-15.2,10.8-24.3,10.8
					c-9.1,0-17.6-4.7-24.4-10.9c-9.9-8.9-16.5-17.5-17-37.7c0-0.8,0-1.6,0-2.5v-33.2c0-13.4,10.9-24.3,24.3-24.3H96z"/>
				<g>
					<g>
						<path class="st5" d="M94.8,431.5c0,0,0-0.1,0.1-0.2c0.1-0.1,0.1-0.3,0.3-0.5c0.3-0.4,0.7-1.1,1.4-1.7c0.6-0.7,1.5-1.3,2.6-1.8
							c1-0.5,2.3-0.8,3.5-0.9c0.3,0,0.6,0,0.9,0c0.3,0,0.6,0,0.9,0.1c0.6,0.1,1.2,0.2,1.8,0.4c1.1,0.4,2.1,0.9,2.8,1.4
							c0.7,0.5,1.2,1.1,1.6,1.5c0.2,0.2,0.3,0.4,0.4,0.5c0.1,0.1,0.1,0.2,0.1,0.2s-0.2-0.2-0.6-0.5c-0.4-0.3-1-0.8-1.8-1.2
							c-0.8-0.4-1.7-0.8-2.7-1.1c-0.5-0.1-1.1-0.2-1.6-0.3c-0.3,0-0.5,0-0.8,0c-0.3,0-0.6,0-0.8,0c-0.6,0-1.1,0.1-1.7,0.2
							c-0.5,0.1-1.1,0.3-1.6,0.5c-1,0.4-1.9,0.9-2.5,1.4c-0.7,0.5-1.2,1-1.6,1.4C95,431.3,94.8,431.5,94.8,431.5z"/>
					</g>
					<g>
						<path class="st5" d="M63,431.5c0,0-0.2-0.2-0.6-0.6c-0.3-0.4-0.9-0.9-1.6-1.4c-0.7-0.5-1.6-1-2.5-1.4c-0.5-0.2-1-0.4-1.6-0.5
							c-0.5-0.1-1.1-0.2-1.7-0.2c-0.3,0-0.6,0-0.8,0c-0.3,0-0.6,0-0.8,0c-0.5,0.1-1.1,0.1-1.6,0.3c-1,0.3-2,0.7-2.7,1.1
							c-0.8,0.4-1.4,0.8-1.8,1.2c-0.4,0.3-0.6,0.5-0.6,0.5s0-0.1,0.1-0.2c0.1-0.1,0.2-0.3,0.4-0.5c0.3-0.4,0.8-1,1.6-1.5
							c0.7-0.6,1.7-1.1,2.8-1.4c0.6-0.2,1.1-0.3,1.8-0.4c0.3,0,0.6-0.1,0.9-0.1c0.3,0,0.6,0,0.9,0c1.2,0.1,2.5,0.4,3.5,0.9
							c1.1,0.5,1.9,1.2,2.6,1.8c0.7,0.6,1.1,1.3,1.4,1.7c0.2,0.2,0.2,0.4,0.3,0.5C63,431.4,63,431.5,63,431.5z"/>
					</g>
				</g>
			</g>
			<g>
				<g>
					<g>
						<path class="st26" d="M125.2,413.7c0.2-5.5,0.4-11,0.4-16.5c4.8-1,9.1-4.5,11-9c0,0-4.3-3-4.7-3.3c-6.2-5-8.5-13.2-12.7-19.6
							c-6.4-9.9-17.5-15.2-28.8-17.3c-10.8-2-25.9-2.8-35.7,3.3c-4,2.5-6.3,6.6-6.6,11.3c-0.1,1.6-0.1,3.1-0.1,4.7
							c0-0.8-4.3-0.3-4.8-0.2c-4.4,0.8-8.8,2.9-11,7c-2.9,5.3-2.4,11.4-1,17c0.7,3,1.7,5.9,2,9c0.2,3.2-0.2,3.9-0.3,7.1
							c0,0.4,4.7,1.9,5,1.9v-9.7c0-15.4,12.3-27.9,27.5-27.9c0,0,27.3,0,27.3,0c8.4,0,16.4,4,21.6,10.6c3.4,4.4,5.2,9.7,5.8,15.1
							c0.3,2.5,0.1,5,0,7.4c-0.1,1.1-0.2,2.2-0.3,3.4c-0.1,1,0.4,2.2,0.5,3.2c0.2,1.8,0.3,3.7,0.4,5.5c0.1,1.5,1.3,2,2.3,2.9
							c0.4,0.3,2.3,1.4,2.2,2C125,418.9,125.1,416.3,125.2,413.7z"/>
					</g>
				</g>
				<g>
					<g>
						<path class="st26" d="M34.5,429.1h3.1v-22h-5v20.1C32.6,428.3,33.5,429.1,34.5,429.1z"/>
					</g>
					<g>
						<path class="st26" d="M123.1,429.1H120v-22h5v20.1C125,428.3,124.1,429.1,123.1,429.1z"/>
					</g>
				</g>
				<g>
					<path class="st26" d="M53.3,388.1c2.5,0,4.9,0,7.4,0c1.2,0,2.3,0,3.5,0c5.3,0,10.6,0,15.8,0.1c2.6,0,5.3,0,7.9,0
						c1.3,0,2.6,0,4,0c0.8,0,2-0.5,2.4,0.5c0.2,0.5,0.2,1,0.1,1.6c-0.2,1.2-0.5,2.5-1,3.6c-1.1,2.8-2.1,5.7-0.6,8.6
						c1,1.9,2.9,3.2,5,3.8c2.9,0.8,6.1,0,8.9-0.8c4.6-1.3,8.5,2,10.7,5.8c1.8,3.2,2.9,6.9,3.1,10.5c-0.1-1.4,1.6-3.4,2-4.7
						c0.7-2,1-4.3,1.3-6.4c0.7-4.6,0.9-9.3,0.6-14c-0.2-2.6-0.8-4.6-1.6-6.9c-0.7-2-0.6-4.3-1.3-6.4c-1.3-3.9-3.6-7.3-6.7-10
						c-9.2-8.2-23-9.7-34.7-9.7c-45.7,0-46.1,29.8-46.1,29.8c0.5,3.5,1,6.9,1.6,10.4c0,1.4,0.5,2.8,0.7,4.2c0.2,1.5,0.2,2.9,0,4.4
						c-0.1,1-0.4,2-0.2,3c0,0.8,0.3,1.6,0.7,2.3c0.3,0.5,0.6,1.1,0.8,1.5c-0.2-0.4,0.6-2.4,0.7-2.9c0.3-0.9,0.6-1.9,0.8-2.8
						c0.7-2.6,1.6-5.2,3.1-7.4c1-1.5,2.6-2.3,4-3.5c2-1.7,3.9-3.6,4.6-6.1c0.8-2.7,0.8-5.6,0.8-8.5
						C52.3,388.1,52.8,388.1,53.3,388.1z"/>
				</g>
			</g>
			<g>
				<path class="st8" d="M83.6,437.4l-1.7,2.1c-1.7,2.1-4.6,2.1-6.3,0l-1.7-2.1c-0.5-0.6-0.1-1.6,0.5-1.6h8.6
					C83.8,435.8,84.1,436.8,83.6,437.4z"/>
			</g>
			<g>
				<path class="st26" d="M100.6,421.9c0,3.6-2.1,6.6-4.6,6.6s-4.6-2.9-4.6-6.6s2.1-6.6,4.6-6.6S100.6,418.3,100.6,421.9z"/>
				<path class="st27" d="M96,426.5c-1.2,0-2.6-2-2.6-4.6c0-2.6,1.4-4.6,2.6-4.6c1.2,0,2.6,2,2.6,4.6
					C98.6,424.6,97.2,426.5,96,426.5z"/>
			</g>
			<g>
				<path class="st26" d="M57,421.9c0,3.6,2.1,6.6,4.6,6.6c2.5,0,4.6-2.9,4.6-6.6s-2.1-6.6-4.6-6.6C59,415.4,57,418.3,57,421.9z"/>
				<path class="st27" d="M61.6,426.5c-1.2,0-2.6-2-2.6-4.6c0-2.6,1.4-4.6,2.6-4.6c1.2,0,2.6,2,2.6,4.6
					C64.2,424.6,62.8,426.5,61.6,426.5z"/>
			</g>
			<g>
				<path class="st26" d="M65.1,407.2c-2.8-0.3-5.6-0.1-8.2,0.6c-1.3,0.4-2.6,0.9-3.9,1.4c-1.1,0.5-3.5,1.8-3.5,3.4
					c0,0.8,2-0.6,2.5-0.8c2.1-0.9,4.4-1.6,6.7-1.8c2.4-0.2,4.6,0.2,6.9,1c1.3,0.5,2.5,1.4,3.9,1.7c0.8,0.2,1.8,0,2.3-0.6
					c0.4-0.4,0.4-0.9,0.3-1.4c-0.1-0.7-0.4-1.3-0.8-1.8c-0.2-0.2-0.3-0.4-0.5-0.6c0,0.2,0,0.5,0,0.7c0-0.2-0.5-0.3-0.7-0.4
					C68.7,407.8,66.9,407.4,65.1,407.2z"/>
			</g>
			<g>
				<path class="st26" d="M91.7,407.2c2.8-0.3,5.6-0.1,8.2,0.6c1.3,0.4,2.6,0.9,3.9,1.4c1.1,0.5,3.5,1.8,3.5,3.4
					c0,0.8-2-0.6-2.5-0.8c-2.1-0.9-4.4-1.6-6.7-1.8c-2.4-0.2-4.6,0.2-6.9,1c-1.3,0.5-2.5,1.4-3.9,1.7c-0.8,0.2-1.8,0-2.3-0.6
					c-0.4-0.4-0.4-0.9-0.3-1.4c0.1-0.7,0.4-1.3,0.8-1.8c0.2-0.2,0.3-0.4,0.5-0.6c0,0.2,0,0.5,0,0.7c0-0.2,0.5-0.3,0.7-0.4
					C88.2,407.8,90,407.4,91.7,407.2z"/>
			</g>
			<g>
				<g>
					<path class="st5" d="M77.8,453.3c-8,0-13.4-3.7-13.5-3.7c-0.5-0.3-0.6-0.9-0.2-1.4c0.3-0.5,0.9-0.6,1.4-0.3
						c0.5,0.3,12.1,8.2,26.7-1.1c0.5-0.3,1.1-0.2,1.4,0.3c0.3,0.5,0.2,1.1-0.3,1.4C87.6,452.1,82.3,453.3,77.8,453.3z"/>
				</g>
			</g>
		</g>
		<g>
			<path class="st16" d="M51.7,481.2l27,31.7c0,0-18.2,3-24.1,22.6c0,0-5-36.7-17.8-50.9l4.7-13.5c0.3-0.8,0.8-1.4,1.6-1.7l8.6-3.7
				V481.2z"/>
			<path class="st17" d="M51.7,481.2l-6.6-7.9c-0.6-0.7-0.3-1.7,0.5-2.1l6.1-2.8V481.2z"/>
		</g>
		<g>
			<path class="st16" d="M105.8,481.2l-27,31.7c0,0,18.2,3,24.1,22.6c0,0,5.6-43.9,17.8-50.9l-4.7-13.5c-0.3-0.8-0.8-1.4-1.6-1.7
				l-8.6-3.7V481.2z"/>
			<path class="st17" d="M105.8,481.2l6.6-7.9c0.6-0.7,0.3-1.7-0.5-2.1l-6.1-2.8V481.2z"/>
		</g>
		<g>
			<g>
				<g>
					<g>
						<path class="st25" d="M159.7,513.3C159.7,513.3,159.7,513.3,159.7,513.3L159.7,513.3c-0.2,0.3-0.4,0.5-0.7,0.7
							c-0.4,0.4-0.8,0.8-1.2,1.2c-0.3,0.3-0.5,0.5-0.8,0.8c-0.4,0.4-0.8,0.8-1.2,1.2c-0.3,0.3-0.5,0.5-0.8,0.8
							c-0.4,0.4-0.8,0.8-1.2,1.1c-6.5,6-13.8,11.2-21.6,15.4c-2.5,1.4-5.1,2.7-7.7,3.8l0.1-4c0.8-32.9,3.2-43.3,5.1-47.5
							c2.8,0.8,5.3,1.5,7.4,2.1c0,0,0.1,0,0.1,0c2.6,0.8,5,2,7.1,3.7c0.5,0.4,0.9,0.7,1.3,1.1c1.1,1,2.1,2.2,3,3.4L159.7,513.3z"/>
						<path class="st16" d="M159.7,513.3C159.7,513.3,159.7,513.4,159.7,513.3C159.7,513.4,159.7,513.4,159.7,513.3L159.7,513.3
							c-0.2,0.3-0.5,0.5-0.7,0.7c-0.4,0.4-0.8,0.8-1.2,1.2c-0.3,0.3-0.5,0.5-0.8,0.8c-0.4,0.4-0.8,0.8-1.2,1.2
							c-0.3,0.3-0.6,0.5-0.8,0.8c-0.4,0.4-0.8,0.8-1.2,1.1c-6.5,6-13.8,11.2-21.6,15.4c0.6-24.3,2.2-41.9,4.9-45.4
							c2.6,0.8,5,2.1,7.1,3.7c0.5,0.4,0.9,0.7,1.3,1.1c1.1,1,2.1,2.2,3,3.4L159.7,513.3z"/>
					</g>
				</g>
				<g>
					<g>
						<path class="st25" d="M33.2,538.4c-10.8-4.9-20.7-11.4-29.4-19.3c-0.4-0.4-0.8-0.7-1.2-1.1c-0.3-0.2-0.6-0.5-0.8-0.8
							c-0.4-0.4-0.8-0.8-1.2-1.2c-0.3-0.3-0.5-0.5-0.8-0.8c-0.4-0.4-0.8-0.8-1.2-1.2c-0.2-0.2-0.4-0.4-0.6-0.6c0,0,0,0,0,0
							c0,0,0-0.1,0-0.1l11.2-15.9c2.8-4,6.8-6.8,11.4-8.2c0,0,0.1,0,0.1,0c2.1-0.6,4.6-1.4,7.4-2.1c1.9,4.1,4.3,14.6,5,47.5
							L33.2,538.4z"/>
						<path class="st16" d="M-2.1,513.3C-2.1,513.3-2.1,513.4-2.1,513.3C-2.1,513.4-2.1,513.4-2.1,513.3L-2.1,513.3
							c0.2,0.3,0.5,0.5,0.7,0.7c0.4,0.4,0.8,0.8,1.2,1.2c0.3,0.3,0.5,0.5,0.8,0.8c0.4,0.4,0.8,0.8,1.2,1.2c0.3,0.3,0.6,0.5,0.8,0.8
							c0.4,0.4,0.8,0.8,1.2,1.1c6.5,6,13.8,11.2,21.6,15.4c-0.6-24.3-2.2-41.9-4.9-45.4c-2.6,0.8-5,2.1-7.1,3.7
							c-0.5,0.4-0.9,0.7-1.3,1.1c-1.1,1-2.1,2.2-3,3.4L-2.1,513.3z"/>
					</g>
				</g>
			</g>
		</g>
	</g>
	<g>
		<g>
			<g>
				<g>
					<path class="st1" d="M190.2,674.2c0,25-8.2,48.1-22.1,66.7c-1.3,1.7-2.6,3.3-3.9,4.9c-0.8,0.9-1.5,1.8-2.3,2.7
						c-0.7,0.8-1.4,1.6-2.1,2.3c-20.3,21.4-49,34.8-80.9,34.8c-31.8,0-60.6-13.4-80.9-34.8c0,0,0,0,0,0c0,0,0,0-0.1-0.1
						c-1.5-1.6-3-3.3-4.4-5c-1.3-1.6-2.6-3.2-3.9-4.9c-13.9-18.6-22.1-41.6-22.1-66.7c0-61.5,49.9-111.4,111.4-111.4
						C140.3,562.9,190.2,612.7,190.2,674.2z"/>
				</g>
				<g>
					<g>
						<path class="st13" d="M159.7,750.8C159.7,750.8,159.7,750.8,159.7,750.8L159.7,750.8c-0.2,0.3-0.4,0.5-0.7,0.7
							c-0.4,0.4-0.8,0.8-1.2,1.2c-0.3,0.3-0.5,0.5-0.8,0.8c-0.4,0.4-0.8,0.8-1.2,1.2c-0.3,0.3-0.5,0.5-0.8,0.8
							c-0.4,0.4-0.8,0.8-1.2,1.1c-4.2,3.8-8.6,7.3-13.3,10.4h0c-2.7,1.8-5.5,3.5-8.3,5c-2.5,1.4-5.1,2.7-7.7,3.8
							c-2.9,1.3-5.9,2.5-8.9,3.5c-1.6,0.5-3.2,1.1-4.8,1.5c-10.1,3.1-20.9,4.7-31.9,4.7c-11.1,0-21.8-1.6-32-4.7
							c-1.6-0.5-3.2-1-4.8-1.5c-2.4-0.8-4.7-1.7-7-2.7c-0.6-0.3-1.3-0.5-1.9-0.8c-5.6-2.5-10.9-5.5-16-8.9
							c-4.7-3.1-9.2-6.6-13.4-10.4c-0.4-0.4-0.8-0.7-1.2-1.1c-0.3-0.2-0.6-0.5-0.8-0.8c-0.4-0.4-0.8-0.8-1.2-1.2
							c-0.3-0.3-0.5-0.5-0.8-0.8c-0.4-0.4-0.8-0.8-1.2-1.2c-0.2-0.2-0.4-0.4-0.6-0.6c0,0,0,0,0,0c0,0,0-0.1,0-0.1l11.2-15.9
							c2.8-4,6.8-6.8,11.4-8.2c0,0,0.1,0,0.1,0c0.4-0.1,0.8-0.2,1.2-0.4c0,0,0,0,0.1,0c1.8-0.5,3.9-1.1,6.2-1.8
							c2.8-0.8,5.8-1.6,9.1-2.4c0.2-0.1,0.5-0.1,0.7-0.2c2.3-0.6,4.6-1.2,7.1-1.7c11.4-2.6,24-4.8,33.9-4.8h0
							c9.9,0,22.5,2.2,33.9,4.8c2.4,0.5,4.7,1.1,7,1.7c0.2,0.1,0.5,0.1,0.7,0.2c3.3,0.8,6.4,1.7,9.2,2.4c2.2,0.6,4.3,1.2,6.1,1.8
							c0,0,0,0,0.1,0c0.4,0.1,0.9,0.2,1.3,0.4c0,0,0.1,0,0.1,0c2.6,0.8,5,2,7.1,3.7c0.5,0.4,0.9,0.7,1.3,1.1c1.1,1,2.1,2.2,3,3.4
							L159.7,750.8z"/>
					</g>
				</g>
				<path class="st28" d="M114,721.8c0,19.4-15.7,35.1-35.1,35.1s-35.1-15.7-35.1-35.1c0,0,0,0,0,0c0-1.9,1.4-3.5,3.2-3.9
					c10.9-2.4,22.5-4.3,31.9-4.3h0.1c9.3,0,21,1.9,31.9,4.3C112.7,718.3,114,719.9,114,721.8C114,721.8,114,721.8,114,721.8z"/>
				<g>
					<path class="st29" d="M140.4,765.8v1.2h0c-2.7,1.8-5.5,3.5-8.3,5c-2.5,1.4-5.1,2.7-7.7,3.8c-2.9,1.3-5.9,2.5-8.9,3.5
						c-1.6,0.5-3.2,1.1-4.8,1.5c-10.1,3.1-20.9,4.7-31.9,4.7c-11.1,0-21.8-1.6-32-4.7c-1.6-0.5-3.2-1-4.8-1.5
						c-2.4-0.8-4.7-1.7-7-2.7c-0.6-0.3-1.3-0.5-1.9-0.8c-5.6-2.5-10.9-5.5-16-8.9v-1.4c0-0.6,0.4-1.2,1-1.3c2.4-0.6,3.4-3.5,3.7-4.3
						v-33.2c0-0.2,0-0.4,0.1-0.5c0.2-0.9,0.9-1.7,1.8-2c1.4-0.4,2.8-0.8,4.4-1.2c2-0.6,4.2-1.2,6.5-1.8c1-0.3,2,0.1,2.6,0.8
						c0.4,0.5,0.7,1.1,0.7,1.8v13.9c0,28.2,9.9,30.7,22.1,30.7h37.7c12.2,0,22.1-4.6,22.1-30.7v-13.9c0-0.7,0.3-1.3,0.7-1.8
						c0.6-0.7,1.6-1,2.6-0.8c2.3,0.6,4.5,1.2,6.6,1.8c1.5,0.4,2.9,0.8,4.3,1.2c0.9,0.3,1.6,1,1.8,2c0,0.2,0.1,0.4,0.1,0.5v33
						c0,0,1,3.8,3.7,4.5c0.6,0.2,0.9,0.7,1,1.3C140.4,765.7,140.4,765.7,140.4,765.8z"/>
				</g>
				<g>
					<path class="st4" d="M105.8,723.2v-36.3H51.7v36.3c0,0,0,0,0,0.1c0,14.9,12.1,27,27,27S105.8,738.2,105.8,723.2
						C105.8,723.3,105.8,723.2,105.8,723.2z"/>
					<path class="st5" d="M101.9,686.9H51.7v9.8c6.2,11,14.6,15.9,24.4,17.5c4.1,0.7,9.6,1,14.8,1.1c6.1,0.1,10.9,5.1,10.9,11.2l0,0
						c0,7.7-3.2,14.6-8.3,19.5c7.4-4.8,12.3-13.2,12.3-22.7v-8.1v-28.3H101.9z"/>
				</g>
				<g>
					<g>
						<g>
							<ellipse class="st4" cx="37.4" cy="666.6" rx="15.4" ry="16.4"/>
							<path class="st5" d="M37.4,678c-5.7,0-10.4-5.1-10.4-11.4c0-6.3,4.7-11.4,10.4-11.4s10.4,5.1,10.4,11.4
								C47.8,672.9,43.1,678,37.4,678z"/>
						</g>
						<g>
							<ellipse class="st4" cx="120.2" cy="666.6" rx="15.4" ry="16.4"/>
							<path class="st5" d="M120.2,678c-5.7,0-10.4-5.1-10.4-11.4c0-6.3,4.7-11.4,10.4-11.4c5.7,0,10.4,5.1,10.4,11.4
								C130.5,672.9,125.9,678,120.2,678z"/>
						</g>
					</g>
					<path class="st6" d="M96,601.4c13.4,0,24.3,10.9,24.3,24.3v35.7h-0.1c-0.5,20.3-7.1,28.9-17.1,37.8
						c-6.8,6.1-15.2,10.8-24.3,10.8c-9.1,0-17.6-4.7-24.4-10.9c-9.9-8.9-16.5-17.5-17-37.7c0-0.8,0-1.6,0-2.5v-33.2
						c0-13.4,10.9-24.3,24.3-24.3H96z"/>
					<g>
						<g>
							<path class="st5" d="M94.8,669c0,0,0-0.1,0.1-0.2c0.1-0.1,0.1-0.3,0.3-0.5c0.3-0.4,0.7-1.1,1.4-1.7c0.6-0.7,1.5-1.3,2.6-1.8
								c1-0.5,2.3-0.8,3.5-0.9c0.3,0,0.6,0,0.9,0c0.3,0,0.6,0,0.9,0.1c0.6,0.1,1.2,0.2,1.8,0.4c1.1,0.4,2.1,0.9,2.8,1.4
								c0.7,0.5,1.2,1.1,1.6,1.5c0.2,0.2,0.3,0.4,0.4,0.5c0.1,0.1,0.1,0.2,0.1,0.2s-0.2-0.2-0.6-0.5c-0.4-0.3-1-0.8-1.8-1.2
								c-0.8-0.4-1.7-0.8-2.7-1.1c-0.5-0.1-1.1-0.2-1.6-0.3c-0.3,0-0.5,0-0.8,0c-0.3,0-0.6,0-0.8,0c-0.6,0-1.1,0.1-1.7,0.2
								c-0.5,0.1-1.1,0.3-1.6,0.5c-1,0.4-1.9,0.9-2.5,1.4c-0.7,0.5-1.2,1-1.6,1.4C95,668.8,94.8,669,94.8,669z"/>
						</g>
						<g>
							<path class="st5" d="M63,669c0,0-0.2-0.2-0.6-0.6c-0.3-0.4-0.9-0.9-1.6-1.4c-0.7-0.5-1.6-1-2.5-1.4c-0.5-0.2-1-0.4-1.6-0.5
								c-0.5-0.1-1.1-0.2-1.7-0.2c-0.3,0-0.6,0-0.8,0c-0.3,0-0.6,0-0.8,0c-0.5,0.1-1.1,0.1-1.6,0.3c-1,0.3-2,0.7-2.7,1.1
								c-0.8,0.4-1.4,0.8-1.8,1.2c-0.4,0.3-0.6,0.5-0.6,0.5s0-0.1,0.1-0.2c0.1-0.1,0.2-0.3,0.4-0.5c0.3-0.4,0.8-1,1.6-1.5
								c0.7-0.6,1.7-1.1,2.8-1.4c0.6-0.2,1.1-0.3,1.8-0.4c0.3,0,0.6-0.1,0.9-0.1c0.3,0,0.6,0,0.9,0c1.2,0.1,2.5,0.4,3.5,0.9
								c1.1,0.5,1.9,1.2,2.6,1.8c0.7,0.6,1.1,1.3,1.4,1.7c0.2,0.2,0.2,0.4,0.3,0.5C63,668.9,63,669,63,669z"/>
						</g>
					</g>
				</g>
				<g>
					<g>
						<g>
							<path class="st15" d="M133.7,635.7c-1.2-0.4-2.4-0.8-3.6-1.2c-1.3-0.4-2.7-0.9-3.9-1.5c-0.3,1.1-0.6,2.1-0.7,3.2
								c-0.2,5-0.1,10-0.3,15c-0.1,2.6-0.2,5.2-0.2,7.8c0-0.5-1.9-1.7-2.2-1.9c-1.1-0.8-2.3-1.4-2.4-2.9c-0.1-1.8-0.1-3.7-0.4-5.5
								c-0.1-1-0.6-2.2-0.5-3.2c0.1-1.1,0.2-2.2,0.3-3.4c0.2-2.5,0.3-5,0-7.4c-0.6-5.5-2.4-10.8-5.7-15.1
								c-5.2-6.7-13.2-10.6-21.6-10.6c0,0-27.3,0-27.3,0c-15.2,0-27.5,12.5-27.5,27.9v9.7c-0.3,0-5-1.5-5-1.9
								c0.1-3.3,0.6-3.9,0.3-7.1c-0.1-1.6-0.5-3.2-0.8-4.7c-1.4,0.8-2.9,1.3-4.4,1.8c-1.2,0.4-2.4,0.8-3.6,1.2
								c3.6-3,5.8-7.5,6.2-12.2v0c0-0.3-0.1-0.6-0.1-0.9c0-2,0.2-4.1,0.6-6.1c0.8-4,2.7-7.4,4.3-11.2c1.4-3.1,3.8-4.2,6.6-6.1
								c2.2-1.4,4.7-2.8,6.3-5c0.9-1.3,1.6-2.8,2.4-4.2c0.4-0.7,1-1.3,1.6-1.9c3.1-2.8,7.4-3.4,11.4-3.3c4.7,0.1,9.8,0.8,13.5,3.9
								c-0.9-1.3-2.1-2.5-3.4-3.5c1.8,0.9,3.6,2.1,5.2,3.4c0.3-0.6,0.8-1.1,1.4-1.4c2.2-1.4,4.7-2.2,7.2-2.3
								c-0.7,0.4-1.4,0.9-1.8,1.6c2.5-0.6,4.9-1.2,7.5-1.2c2.6,0,5.1,0.6,7.5,1.5c2.7,1.2,5.1,3.1,7,5.4c0.8,1.1,1.4,2.4,2.3,3.3
								c1.1,1.1,2.2,2.1,3.6,2.8c2.1,1,3.9,2.4,5.8,3.8c1.4,1,2.3,2.7,3.2,4.2c3.2,5.3,5,11.4,5.1,17.6c0,0.2,0,0.4,0,0.6
								C128.2,628.9,130.4,632.9,133.7,635.7z"/>
						</g>
					</g>
					<g>
						<g>
							<path class="st15" d="M34.5,666.6h3.1v-22h-5v20.1C32.6,665.8,33.5,666.6,34.5,666.6z"/>
						</g>
						<g>
							<path class="st15" d="M123.1,666.6H120v-22h5v20.1C125,665.8,124.1,666.6,123.1,666.6z"/>
						</g>
					</g>
					<g>
						<g>
							<path class="st15" d="M123.8,648.4c-0.3,2.1-0.6,4.4-1.3,6.4c-0.4,1.3-2,3.2-2,4.6c-0.2-3.6-1.3-7.3-3.1-10.5
								c-2.2-3.8-6-7.1-10.7-5.8c-2.8,0.8-6,1.6-8.9,0.8c-2.1-0.6-3.9-1.9-4.9-3.8c-1.7-3-0.3-5.6,0.7-8.5c0.7-2.1,1.6-5.4-0.5-7.1
								c-1.5-1.2-3.3-1.9-5.2-1.9c-1.9,0-3.6,0.7-5.1,1.8c-1,0.8-1.5,1.3-2.8,1.3h-2.4c-1.4,0-1.8-0.5-2.8-1.3
								c-1.5-1.1-3.2-1.8-5.1-1.8c-1.9,0-3.7,0.7-5.2,1.9c-2,1.6-1.2,5-0.5,7.1c1,2.9,2.4,5.5,0.7,8.5c-1,1.9-2.9,3.2-4.9,3.8
								c-2.9,0.8-6.1,0-8.9-0.8c-4.6-1.3-8.5,2-10.7,5.8c-1.8,3.2-2.9,6.9-3.1,10.5c0-1.4-1.6-3.3-2-4.6c-0.7-2-1-4.3-1.3-6.4
								c-0.7-4.6-0.9-9.3-0.6-14c0.2-2.6,0.8-4.6,1.6-6.9c0.7-2,0.6-4.3,1.3-6.4c1.3-3.9,3.6-7.3,6.7-10c9.2-8.2,23-9.7,34.7-9.7
								c0.4,0,0.8,0,1.2,0c0.4,0,0.8,0,1.2,0c11.8,0,25.5,1.5,34.7,9.7c3,2.7,5.4,6.2,6.7,10c0.7,2.1,0.6,4.4,1.3,6.4
								c0.8,2.4,1.5,4.4,1.6,6.9C124.7,639,124.5,643.8,123.8,648.4z"/>
						</g>
					</g>
				</g>
				<g>
					<path class="st8" d="M83.6,674.9l-1.7,2.1c-1.7,2.1-4.6,2.1-6.3,0l-1.7-2.1c-0.5-0.6-0.1-1.6,0.5-1.6h8.6
						C83.8,673.3,84.1,674.3,83.6,674.9z"/>
				</g>
				<g>
					<path class="st15" d="M100.6,659.4c0,3.6-2.1,6.6-4.6,6.6c-2.5,0-4.6-2.9-4.6-6.6s2.1-6.6,4.6-6.6
						C98.5,652.8,100.6,655.8,100.6,659.4z"/>
					<path class="st30" d="M96,664c-1.2,0-2.6-2-2.6-4.6c0-2.6,1.4-4.6,2.6-4.6c1.2,0,2.6,2,2.6,4.6C98.6,662,97.2,664,96,664z"/>
				</g>
				<g>
					<path class="st15" d="M57,659.4c0,3.6,2.1,6.6,4.6,6.6c2.5,0,4.6-2.9,4.6-6.6s-2.1-6.6-4.6-6.6C59,652.8,57,655.8,57,659.4z"/>
					<path class="st30" d="M61.6,664c-1.2,0-2.6-2-2.6-4.6c0-2.6,1.4-4.6,2.6-4.6c1.2,0,2.6,2,2.6,4.6C64.2,662,62.8,664,61.6,664z"
						/>
				</g>
				<g>
					<path class="st15" d="M65.1,644.7c-2.8-0.3-5.6-0.1-8.2,0.6c-1.3,0.4-2.6,0.9-3.9,1.4c-1.1,0.5-3.5,1.8-3.5,3.4
						c0,0.8,2-0.6,2.5-0.8c2.1-0.9,4.4-1.6,6.7-1.8c2.4-0.2,4.6,0.2,6.9,1c1.3,0.5,2.5,1.4,3.9,1.7c0.8,0.2,1.8,0,2.3-0.6
						c0.4-0.4,0.4-0.9,0.3-1.4c-0.1-0.7-0.4-1.3-0.8-1.8c-0.2-0.2-0.3-0.4-0.5-0.6c0,0.2,0,0.5,0,0.7c0-0.2-0.5-0.3-0.7-0.4
						C68.7,645.3,66.9,644.9,65.1,644.7z"/>
				</g>
				<g>
					<path class="st15" d="M91.7,644.7c2.8-0.3,5.6-0.1,8.2,0.6c1.3,0.4,2.6,0.9,3.9,1.4c1.1,0.5,3.5,1.8,3.5,3.4
						c0,0.8-2-0.6-2.5-0.8c-2.1-0.9-4.4-1.6-6.7-1.8c-2.4-0.2-4.6,0.2-6.9,1c-1.3,0.5-2.5,1.4-3.9,1.7c-0.8,0.2-1.8,0-2.3-0.6
						c-0.4-0.4-0.4-0.9-0.3-1.4c0.1-0.7,0.4-1.3,0.8-1.8c0.2-0.2,0.3-0.4,0.5-0.6c0,0.2,0,0.5,0,0.7c0-0.2,0.5-0.3,0.7-0.4
						C88.2,645.3,90,644.9,91.7,644.7z"/>
				</g>
				<g>
					<g>
						<path class="st5" d="M77.8,690.7c-8,0-13.4-3.7-13.5-3.7c-0.5-0.3-0.6-0.9-0.2-1.4c0.3-0.5,0.9-0.6,1.4-0.3
							c0.5,0.3,12.1,8.2,26.7-1.1c0.5-0.3,1.1-0.2,1.4,0.3c0.3,0.5,0.2,1.1-0.3,1.4C87.6,689.6,82.3,690.7,77.8,690.7z"/>
					</g>
				</g>
			</g>
		</g>
		<g>
			<path class="st31" d="M35.2,764c0,2.3-1.9,4.2-4.2,4.2c-2.3,0-4.2-1.9-4.2-4.2c0-2.3,1.9-4.2,4.2-4.2
				C33.4,759.9,35.2,761.7,35.2,764z"/>
			<path class="st31" d="M130.6,764c0,2.3-1.9,4.2-4.2,4.2c-2.3,0-4.2-1.9-4.2-4.2c0-2.3,1.9-4.2,4.2-4.2
				C128.8,759.9,130.6,761.7,130.6,764z"/>
		</g>
	</g>
	<g>
		<g>
			<g>
				<g>
					<g>
						<path class="st32" d="M658.6,674.2c0,25-8.2,48.1-22.1,66.7c-1.3,1.7-2.6,3.3-3.9,4.9c-0.8,0.9-1.5,1.8-2.3,2.7
							c-0.7,0.8-1.4,1.6-2.1,2.3c-20.3,21.4-49,34.8-80.9,34.8c-31.8,0-60.6-13.4-80.9-34.8c0,0,0,0,0,0c0,0,0,0-0.1-0.1
							c-1.5-1.6-3-3.3-4.4-5c-1.3-1.6-2.6-3.2-3.9-4.9c-13.9-18.6-22.1-41.6-22.1-66.7c0-61.5,49.9-111.4,111.4-111.4
							C608.7,562.9,658.6,612.7,658.6,674.2z"/>
					</g>
				</g>
				<g>
					<g>
						<path class="st26" d="M516.6,685.4c-2.7-2.7-5.6-5.4-9.2-6.5c-2.6-0.8-5.3-0.8-8-0.5c-0.5,0.1-1,0.1-1.3,0.4
							c-0.6,0.5-0.6,1.3-0.5,2.1c0.5,2.4,2.4,4.1,4.4,5.5c2,1.3,4.2,2.4,5.9,4c1.6,1.6,2.7,3.8,3,6.1c0.3-0.8,0.5-1.7,0.8-2.5
							c0.8,1.6,0.9,3.6,0.2,5.3c-0.7,1.7-2.1,3-3.9,3.6c3,0.4,6.2-0.3,8.7-2c-0.2,0.8-0.6,1.6-1.2,2.2c2.7,0.2,5.5-0.4,7.5-2.2
							c2-1.8,2.9-4.9,1.6-7.3c-0.5-0.8-1.1-1.5-1.8-2.1C520.7,689.3,518.7,687.3,516.6,685.4z"/>
					</g>
					<g>
						<path class="st26" d="M577.8,685.4c2.7-2.7,5.6-5.4,9.2-6.5c2.6-0.8,5.3-0.8,8-0.5c0.5,0.1,1,0.1,1.3,0.4
							c0.6,0.5,0.6,1.3,0.5,2.1c-0.5,2.4-2.4,4.1-4.4,5.5c-2,1.3-4.2,2.4-5.9,4c-1.6,1.6-2.7,3.8-3,6.1c-0.3-0.8-0.5-1.7-0.8-2.5
							c-0.8,1.6-0.9,3.6-0.2,5.3c0.7,1.7,2.1,3,3.9,3.6c-3,0.4-6.2-0.3-8.7-2c0.2,0.8,0.6,1.6,1.2,2.2c-2.7,0.2-5.5-0.4-7.5-2.2
							c-2-1.8-2.9-4.9-1.6-7.3c0.5-0.8,1.1-1.5,1.8-2.1C573.7,689.3,575.7,687.3,577.8,685.4z"/>
					</g>
				</g>
				<g>
					<g>
						<path class="st33" d="M628.1,750.8C628.1,750.8,628.1,750.8,628.1,750.8L628.1,750.8c-0.2,0.3-0.4,0.5-0.7,0.7
							c-0.4,0.4-0.8,0.8-1.2,1.2c-0.3,0.3-0.5,0.5-0.8,0.8c-0.4,0.4-0.8,0.8-1.2,1.2c-0.3,0.3-0.5,0.5-0.8,0.8
							c-0.4,0.4-0.8,0.8-1.2,1.1c-6.5,6-13.8,11.2-21.6,15.4c-0.6,0.3-1.2,0.6-1.8,0.9c-2,1-4,2-6,2.9c-1.6,0.7-3.2,1.4-4.9,2
							c-10.2,4.1-21.2,6.6-32.7,7.4c-2.7,0.2-5.3,0.3-8,0.3c-2.8,0-5.6-0.1-8.3-0.3c-12.5-0.9-24.4-3.9-35.4-8.6
							c-0.6-0.3-1.3-0.5-1.9-0.8c-10.8-4.9-20.7-11.4-29.4-19.3c-0.4-0.4-0.8-0.7-1.2-1.1c-0.3-0.2-0.6-0.5-0.8-0.8
							c-0.4-0.4-0.8-0.8-1.2-1.2c-0.3-0.3-0.5-0.5-0.8-0.8c-0.4-0.4-0.8-0.8-1.2-1.2c-0.2-0.2-0.4-0.4-0.6-0.6c0,0,0,0,0,0
							c0,0,0-0.1,0-0.1l11.2-15.9c2.8-4,6.8-6.8,11.4-8.2c0,0,0.1,0,0.1,0c2.1-0.6,4.6-1.4,7.4-2.1c4.9-1.4,10.7-2.9,16.8-4.3
							c11.4-2.6,24-4.8,33.9-4.8h0c9.9,0,22.5,2.2,33.9,4.8c4.3,1,8.3,2,12.1,3c1.6,0.4,3.2,0.9,4.7,1.3c2.1,0.6,4.1,1.1,5.8,1.7
							c0.6,0.2,1.1,0.3,1.6,0.5c0,0,0.1,0,0.1,0c2.6,0.8,5,2,7.1,3.7c0.5,0.4,0.9,0.7,1.3,1.1c1.1,1,2.1,2.2,3,3.4L628.1,750.8z"/>
					</g>
				</g>
				<g>
					<path class="st34" d="M555.3,785.3c-2.7,0.2-5.3,0.3-8,0.3c-2.8,0-5.6-0.1-8.3-0.3l3.9-26.3h8.4L555.3,785.3z"/>
					<path class="st34" d="M552.4,758.2h-10c-0.8,0-1.6-0.6-1.7-1.4l-1.5-9.4c-0.2-1,0.6-1.9,1.7-1.9h13.1c1.1,0,1.9,0.9,1.7,1.9
						l-1.5,9.4C553.9,757.6,553.2,758.2,552.4,758.2z"/>
					<path class="st25" d="M551,757h-7.9c-0.7,0-1.2,0.6-1.2,1.3v0.9c0,0.7,0.5,1.3,1.2,1.3h7.9c0.7,0,1.2-0.6,1.2-1.3v-0.9
						C552.3,757.6,551.7,757,551,757z"/>
				</g>
				<g>
					<path class="st4" d="M574.3,723.2v-36.3h-54.1v36.3c0,0,0,0,0,0.1c0,14.9,12.1,27,27,27C562.2,750.3,574.3,738.2,574.3,723.2
						C574.3,723.3,574.3,723.2,574.3,723.2z"/>
					<path class="st5" d="M570.3,686.9h-50.1v9.8c6.2,11,14.6,15.9,24.4,17.5c4.1,0.7,9.6,1,14.8,1.1c6.1,0.1,10.9,5.1,10.9,11.2
						l0,0c0,7.7-3.2,14.6-8.3,19.5c7.4-4.8,12.3-13.2,12.3-22.7v-8.1v-28.3H570.3z"/>
				</g>
				<g>
					<g>
						<g>
							<ellipse class="st4" cx="505.8" cy="666.6" rx="15.4" ry="16.4"/>
							<path class="st5" d="M505.8,678c-5.7,0-10.4-5.1-10.4-11.4c0-6.3,4.7-11.4,10.4-11.4s10.4,5.1,10.4,11.4
								C516.2,672.9,511.5,678,505.8,678z"/>
						</g>
						<g>
							<ellipse class="st4" cx="588.6" cy="666.6" rx="15.4" ry="16.4"/>
							<path class="st5" d="M588.6,678c-5.7,0-10.4-5.1-10.4-11.4c0-6.3,4.7-11.4,10.4-11.4c5.7,0,10.4,5.1,10.4,11.4
								C599,672.9,594.3,678,588.6,678z"/>
						</g>
					</g>
					<path class="st6" d="M564.4,601.4c13.4,0,24.3,10.9,24.3,24.3v35.7h-0.1c-0.5,20.3-7.1,28.9-17.1,37.8
						c-6.8,6.1-15.2,10.8-24.3,10.8c-9.1,0-17.6-4.7-24.4-10.9c-9.9-8.9-16.5-17.5-17-37.7c0-0.8,0-1.6,0-2.5v-33.2
						c0-13.4,10.9-24.3,24.3-24.3H564.4z"/>
					<g>
						<g>
							<path class="st26" d="M533.6,644.7c-2.8-0.3-5.6-0.1-8.2,0.6c-1.3,0.4-2.6,0.9-3.9,1.4c-1.1,0.5-3.5,1.8-3.5,3.4
								c0,0.8,2-0.6,2.5-0.8c2.1-0.9,4.4-1.6,6.7-1.8c2.4-0.2,4.6,0.2,6.9,1c1.3,0.5,2.5,1.4,3.9,1.7c0.8,0.2,1.8,0,2.3-0.6
								c0.4-0.4,0.4-0.9,0.3-1.4c-0.1-0.7-0.4-1.3-0.8-1.8c-0.2-0.2-0.3-0.4-0.5-0.6c0,0.2,0,0.5,0,0.7c0-0.2-0.5-0.3-0.7-0.4
								C537.1,645.3,535.4,644.9,533.6,644.7z"/>
						</g>
					</g>
					<g>
						<g>
							<path class="st26" d="M560.2,644.7c2.8-0.3,5.6-0.1,8.2,0.6c1.3,0.4,2.6,0.9,3.9,1.4c1.1,0.5,3.5,1.8,3.5,3.4
								c0,0.8-2-0.6-2.5-0.8c-2.1-0.9-4.4-1.6-6.7-1.8c-2.4-0.2-4.6,0.2-6.9,1c-1.3,0.5-2.5,1.4-3.9,1.7c-0.8,0.2-1.8,0-2.3-0.6
								c-0.4-0.4-0.4-0.9-0.3-1.4c0.1-0.7,0.4-1.3,0.8-1.8c0.2-0.2,0.3-0.4,0.5-0.6c0,0.2,0,0.5,0,0.7c0-0.2,0.5-0.3,0.7-0.4
								C556.6,645.3,558.4,644.9,560.2,644.7z"/>
						</g>
					</g>
					<g>
						<g>
							<path class="st5" d="M563.2,669c0,0,0-0.1,0.1-0.2c0.1-0.1,0.1-0.3,0.3-0.5c0.3-0.4,0.7-1.1,1.4-1.7c0.6-0.7,1.5-1.3,2.6-1.8
								c1-0.5,2.3-0.8,3.5-0.9c0.3,0,0.6,0,0.9,0c0.3,0,0.6,0,0.9,0.1c0.6,0.1,1.2,0.2,1.8,0.4c1.1,0.4,2.1,0.9,2.8,1.4
								c0.7,0.5,1.2,1.1,1.6,1.5c0.2,0.2,0.3,0.4,0.4,0.5c0.1,0.1,0.1,0.2,0.1,0.2s-0.2-0.2-0.6-0.5c-0.4-0.3-1-0.8-1.8-1.2
								c-0.8-0.4-1.7-0.8-2.7-1.1c-0.5-0.1-1.1-0.2-1.6-0.3c-0.3,0-0.5,0-0.8,0c-0.3,0-0.6,0-0.8,0c-0.6,0-1.1,0.1-1.7,0.2
								c-0.5,0.1-1.1,0.3-1.6,0.5c-1,0.4-1.9,0.9-2.5,1.4c-0.7,0.5-1.2,1-1.6,1.4C563.4,668.8,563.2,669,563.2,669z"/>
						</g>
						<g>
							<path class="st5" d="M531.4,669c0,0-0.2-0.2-0.6-0.6c-0.3-0.4-0.9-0.9-1.6-1.4c-0.7-0.5-1.6-1-2.5-1.4
								c-0.5-0.2-1-0.4-1.6-0.5c-0.5-0.1-1.1-0.2-1.7-0.2c-0.3,0-0.6,0-0.8,0c-0.3,0-0.6,0-0.8,0c-0.5,0.1-1.1,0.1-1.6,0.3
								c-1,0.3-2,0.7-2.7,1.1c-0.8,0.4-1.4,0.8-1.8,1.2c-0.4,0.3-0.6,0.5-0.6,0.5s0-0.1,0.1-0.2c0.1-0.1,0.2-0.3,0.4-0.5
								c0.3-0.4,0.8-1,1.6-1.5c0.7-0.6,1.7-1.1,2.8-1.4c0.6-0.2,1.1-0.3,1.8-0.4c0.3,0,0.6-0.1,0.9-0.1c0.3,0,0.6,0,0.9,0
								c1.2,0.1,2.5,0.4,3.5,0.9c1.1,0.5,1.9,1.2,2.6,1.8c0.7,0.6,1.1,1.3,1.4,1.7c0.2,0.2,0.2,0.4,0.3,0.5
								C531.4,668.9,531.4,669,531.4,669z"/>
						</g>
					</g>
				</g>
				<g>
					<g>
						<path class="st26" d="M497,649.9c1-3.2,1.5-6.5,1.7-9.9c0.2-3.1,1-5.8,0.9-8.9c-0.2-6.4-0.2-12.1,1.7-18.2
							c2.2-7,7.1-13,13.1-17c3.2-2.1,6.7-3.8,10.4-4.7c2-0.5,4.1-0.8,6.2-0.9c1.1,0,5.6-0.3,6.3,0.7c-0.7-1-1.8-1.8-2.9-2.4
							c3.4,0.5,6.6,1.6,9.5,3.3c0.8,0.4,1.5,1,1.9,1.8c2.3-1.8,4.9-3.4,7.7-4.3c2.8-0.9,5.9-1.1,8.8-0.2c-3.5-0.3-7.2,0.9-9.9,3.2
							c1.8-1.1,3.8-1.9,5.9-2.4c12.7-2.8,24.8,6.6,31.5,16.7c2.2,3.3,3.9,6.9,5,10.6c0.9,2.9,1.2,6,1.1,9.1c-0.1,3.9-1.1,7.7-1,11.6
							c0,3.3,0.4,6.6,1.2,9.8c0.7,2.8,1.3,6.1,3.8,7.8c-3.4-2.3-7.3-3.9-11.3-4.6c-0.1-2.6-0.6-5-0.2-7.7c0.3-2.1,0.1-4.3,0.1-6.4
							c0-15.4-12.3-27.9-27.5-27.9c0,0-27.3,0-27.3,0c-8.4,0-16.4,4-21.6,10.6c-3.4,4.4-5.2,9.7-5.8,15.1c-0.3,2.5-0.1,5,0,7.4
							c0.1,1.1,0.2,2.2,0.3,3.4c0.1,2-0.6,4.3-0.8,6.3c-0.1,1.3-0.1,2.8-1.3,3.7c-1.3,0.9-3.1,0.4-4.5,0.4c-0.9,0-5.5,0-6,0.8
							C495.2,654.6,496.3,652.3,497,649.9z"/>
					</g>
					<g>
						<g>
							<path class="st26" d="M592.1,660.6c-0.5,5.2-2.8,10.1-5.1,14.9c0.1-3.1-0.2-6.2-0.9-9.2c-0.5-2.5-1.4-5.3-2.7-7.5
								c-1.3-2.3-4.5-3.5-6.8-4.4c-2.8-1-5.7-1.9-8-3.7c2.6,2.1,5.4,3.9,8.5,5.2c-2.2-0.3-4.4-0.9-6.5-1.7c-3-1.2-5.9-2.8-8.4-4.9
								c-1.1-1-2.5-2.2-3.2-3.5c-0.7-1.3-1-2.9-1.2-4.3c-0.4-2.3-0.7-4.7-0.9-7.1c-0.2-2.6,0.7-5.4-0.4-7.9c-0.4-1-1.1-2-1.9-2.6
								c-2.1-1.6-5.4-0.2-7,1.4c0.1-0.1-2-1.3-2.2-1.4c-1.9-0.8-4.5-1-6.1,0.5c-1.9,1.8-1.8,4.8-1.8,7.2c0,2-0.3,4-0.5,6
								c-0.4,3.2-0.5,6.4-1.6,9.4c-1,3-2.9,5.8-5.6,7.4c0.8-1.6,1.5-3.2,2.1-4.8c-1,0.6-1.7,1.4-2.7,2c-2.8,1.5-5.9,2.4-9.1,3.1
								c-2.5,0.6-5.1,1.2-7.2,2.7c-2.8,2.1-4.1,5.6-4.9,9c-0.7,3-0.9,6.1-0.9,9.2c-2.3-4.7-4.6-9.6-5.1-14.9
								c-0.2-1.9-0.2-3.8-0.1-5.7c0.1-7.2-0.3-14.7,0.6-21.9c0.9-7.6,3.5-16.7,9.4-21.9c9.4-8.3,23.3-9.8,35.2-9.8
								c11.9,0,25.9,1.5,35.2,9.8c8,7.1,9.6,19.3,9.8,29.4c0.1,4.8,0.1,9.6,0.2,14.4C592.3,656.8,592.4,658.7,592.1,660.6z"/>
						</g>
					</g>
				</g>
				<g>
					<path class="st8" d="M552.1,674.9l-1.7,2.1c-1.7,2.1-4.6,2.1-6.3,0l-1.7-2.1c-0.5-0.6-0.1-1.6,0.5-1.6h8.6
						C552.2,673.3,552.5,674.3,552.1,674.9z"/>
				</g>
				<g>
					<path class="st26" d="M569,659.4c0,3.6-2.1,6.6-4.6,6.6c-2.5,0-4.6-2.9-4.6-6.6s2.1-6.6,4.6-6.6C567,652.8,569,655.8,569,659.4
						z"/>
					<path class="st27" d="M564.4,664c-1.2,0-2.6-2-2.6-4.6c0-2.6,1.4-4.6,2.6-4.6s2.6,2,2.6,4.6C567,662,565.7,664,564.4,664z"/>
				</g>
				<g>
					<path class="st26" d="M525.4,659.4c0,3.6,2.1,6.6,4.6,6.6c2.5,0,4.6-2.9,4.6-6.6s-2.1-6.6-4.6-6.6
						C527.5,652.8,525.4,655.8,525.4,659.4z"/>
					<path class="st27" d="M530,664c-1.2,0-2.6-2-2.6-4.6c0-2.6,1.4-4.6,2.6-4.6c1.2,0,2.6,2,2.6,4.6C532.6,662,531.2,664,530,664z"
						/>
				</g>
				<g>
					<g>
						<path class="st5" d="M546.2,690.7c-8,0-13.4-3.7-13.5-3.7c-0.5-0.3-0.6-0.9-0.2-1.4c0.3-0.5,0.9-0.6,1.4-0.3
							c0.5,0.3,12.1,8.2,26.7-1.1c0.5-0.3,1.1-0.2,1.4,0.3c0.3,0.5,0.2,1.1-0.3,1.4C556,689.6,550.7,690.7,546.2,690.7z"/>
					</g>
				</g>
			</g>
			<g>
				<path class="st35" d="M520.2,718.7l27,31.7c0,0-18.2,3-24.1,22.6c0,0-5-36.7-17.8-50.9l4.7-13.5c0.3-0.8,0.8-1.4,1.6-1.7
					l8.6-3.7V718.7z"/>
				<path class="st17" d="M520.2,718.7l-6.6-7.9c-0.6-0.7-0.3-1.7,0.5-2.1l6.1-2.8V718.7z"/>
			</g>
			<g>
				<path class="st35" d="M574.3,718.7l-27,31.7c0,0,18.2,3,24.1,22.6c0,0,5.6-43.9,17.8-50.9l-4.7-13.5c-0.3-0.8-0.8-1.4-1.6-1.7
					l-8.6-3.7V718.7z"/>
				<path class="st17" d="M574.3,718.7l6.6-7.9c0.6-0.7,0.3-1.7-0.5-2.1l-6.1-2.8V718.7z"/>
			</g>
		</g>
		<path class="st34" d="M588.1,763.6l0.2,0c0,0.5,0,1.1-0.1,1.7L588.1,763.6z"/>
		<g>
			<path class="st34" d="M603.6,726.3c-2.5,5.7-3.9,21.7-4.5,36.6l0.5,5.2c0.1,1.2-0.2,2.3-0.7,3.2c-0.9,1.5-2.4,2.5-4.2,2.6l-0.2,0
				c-3,0.2-5.6-2-5.8-4.9l-0.3-3.7c0-0.6,0-1.1,0.1-1.7c0.9-25.4,3.2-35.8,4.9-40.4c0.2-0.5,0.6-0.7,1.1-0.6
				c2.1,0.6,6.4,1.8,8.7,2.4C603.6,725.2,603.8,725.8,603.6,726.3z"/>
			<g>
				<g>
					<g>
						<path class="st25" d="M594.7,773.9l-0.2,0c-3,0.2-5.6-2-5.8-4.9l-0.3-3.7c-0.1,2.1-0.1,4.4-0.2,6.7l-0.1,5.9
							c1.6-0.6,3.3-1.3,4.9-2c2-0.9,4-1.9,6-2.9l0-0.7c0-0.3,0-0.7,0-1C598,772.7,596.5,773.7,594.7,773.9z"/>
					</g>
				</g>
				<path class="st35" d="M601,746.9l-12.3-0.8c-0.6,0-1.1,0.4-1.1,1l-1,15.4c0,0.6,0.4,1.1,1,1.1l12.3,0.8c0.6,0,1.1-0.4,1.1-1
					l1-15.4C602,747.4,601.6,746.9,601,746.9z M599.1,761.6c0,0.4-0.3,0.7-0.7,0.6L595,762l0.1-1.3v-0.1c0-0.6-0.4-1.1-1.1-1.1
					c-0.6,0-1.2,0.4-1.2,1.1l-0.1,1.3l-3.3-0.2c-0.4,0-0.7-0.4-0.6-0.7l0.8-12.1c0-0.4,0.3-0.7,0.7-0.6l9.1,0.6
					c0.4,0,0.7,0.3,0.6,0.7L599.1,761.6z"/>
			</g>
		</g>
		<g>
			<path class="st34" d="M490.7,726.3c2.5,5.7,3.9,21.7,4.5,36.6l-0.5,5.2c-0.1,1.2,0.2,2.3,0.7,3.2c0.9,1.5,2.4,2.5,4.2,2.6l0.2,0
				c3,0.2,5.6-2,5.8-4.9l0.3-3.7c0-0.6,0-1.1-0.1-1.7c-0.9-25.4-3.2-35.8-4.9-40.4c-0.2-0.5-0.6-0.7-1.1-0.6
				c-2.1,0.6-6.4,1.8-8.7,2.4C490.8,725.2,490.5,725.8,490.7,726.3z"/>
			<g>
				<g>
					<g>
						<path class="st25" d="M495.5,771.3c0,0.3,0,0.7,0,1l0,0.7c2,1,4,2,6,2.9c1.6,0.7,3.2,1.4,4.9,2l-0.1-5.9
							c-0.1-2.4-0.1-4.6-0.2-6.7l-0.3,3.7c-0.2,3-2.9,5.2-5.8,4.9l-0.2,0C497.9,773.7,496.4,772.7,495.5,771.3z"/>
					</g>
				</g>
				<path class="st35" d="M492.4,748l1,15.4c0,0.6,0.5,1,1.1,1l12.3-0.8c0.6,0,1-0.5,1-1.1l-1-15.4c0-0.6-0.5-1-1.1-1l-12.3,0.8
					C492.8,746.9,492.3,747.4,492.4,748z M494.5,749.5c0-0.4,0.3-0.7,0.6-0.7l9.1-0.6c0.4,0,0.7,0.3,0.7,0.6l0.8,12.1
					c0,0.4-0.3,0.7-0.6,0.7l-3.3,0.2l-0.1-1.3c0-0.6-0.6-1.1-1.2-1.1c-0.6,0.1-1.1,0.5-1.1,1.1v0.1l0.1,1.3l-3.5,0.2
					c-0.4,0-0.7-0.3-0.7-0.6L494.5,749.5z"/>
			</g>
		</g>
		<line class="st34" x1="588.3" y1="763.6" x2="599.1" y2="762.7"/>
	</g>
</g>
</svg>
